<mxfile host="app.diagrams.net" modified="2022-10-13T10:27:02.021Z" agent="5.0 (Windows NT 10.0; Win64; x64) AppleWebKit/537.36 (KHTML, like Gecko) Chrome/106.0.0.0 Safari/537.36 Edg/106.0.1370.42" etag="1qHUKgutbv1KTnDYTgoP" version="20.3.3" type="github">
  <diagram id="drDEslnpoQUIl-QK1Izc" name="第 1 页">
    <mxGraphModel dx="6394" dy="4983" grid="1" gridSize="10" guides="1" tooltips="1" connect="1" arrows="0" fold="1" page="1" pageScale="1" pageWidth="1654" pageHeight="2336" math="0" shadow="0">
      <root>
        <mxCell id="0" />
        <mxCell id="1" parent="0" />
        <mxCell id="MxxMs0gsNMaucJudg2Yt-34" style="edgeStyle=none;rounded=0;orthogonalLoop=1;jettySize=auto;html=1;exitX=0;exitY=1;exitDx=0;exitDy=0;entryX=0.5;entryY=0;entryDx=0;entryDy=0;endArrow=none;endFill=0;" edge="1" parent="1" source="ctAhxFMVK5xCa03oS9Rk-1" target="MxxMs0gsNMaucJudg2Yt-8">
          <mxGeometry relative="1" as="geometry" />
        </mxCell>
        <mxCell id="MxxMs0gsNMaucJudg2Yt-59" style="edgeStyle=none;rounded=0;orthogonalLoop=1;jettySize=auto;html=1;exitX=1;exitY=1;exitDx=0;exitDy=0;entryX=0;entryY=0.5;entryDx=0;entryDy=0;endArrow=none;endFill=0;" edge="1" parent="1" source="ctAhxFMVK5xCa03oS9Rk-1" target="MxxMs0gsNMaucJudg2Yt-42">
          <mxGeometry relative="1" as="geometry" />
        </mxCell>
        <mxCell id="ctAhxFMVK5xCa03oS9Rk-1" value="Admin" style="rounded=0;whiteSpace=wrap;html=1;fontSize=16;" parent="1" vertex="1">
          <mxGeometry x="-322" y="-360" width="120" height="60" as="geometry" />
        </mxCell>
        <mxCell id="MxxMs0gsNMaucJudg2Yt-32" style="edgeStyle=none;rounded=0;orthogonalLoop=1;jettySize=auto;html=1;exitX=1;exitY=0.5;exitDx=0;exitDy=0;entryX=0;entryY=0.5;entryDx=0;entryDy=0;endArrow=none;endFill=0;" edge="1" parent="1" source="ctAhxFMVK5xCa03oS9Rk-2" target="ctAhxFMVK5xCa03oS9Rk-1">
          <mxGeometry relative="1" as="geometry" />
        </mxCell>
        <mxCell id="ctAhxFMVK5xCa03oS9Rk-2" value="Id" style="ellipse;whiteSpace=wrap;html=1;fontSize=16;" parent="1" vertex="1">
          <mxGeometry x="-580" y="-380" width="120" height="80" as="geometry" />
        </mxCell>
        <mxCell id="MxxMs0gsNMaucJudg2Yt-33" style="edgeStyle=none;rounded=0;orthogonalLoop=1;jettySize=auto;html=1;exitX=0;exitY=0.5;exitDx=0;exitDy=0;entryX=1;entryY=0.5;entryDx=0;entryDy=0;endArrow=none;endFill=0;" edge="1" parent="1" source="ctAhxFMVK5xCa03oS9Rk-3" target="ctAhxFMVK5xCa03oS9Rk-1">
          <mxGeometry relative="1" as="geometry" />
        </mxCell>
        <mxCell id="ctAhxFMVK5xCa03oS9Rk-3" value="Name" style="ellipse;whiteSpace=wrap;html=1;fontSize=16;" parent="1" vertex="1">
          <mxGeometry x="-100" y="-430" width="120" height="80" as="geometry" />
        </mxCell>
        <mxCell id="ctAhxFMVK5xCa03oS9Rk-5" style="rounded=0;orthogonalLoop=1;jettySize=auto;html=1;exitX=0.5;exitY=1;exitDx=0;exitDy=0;fontSize=16;endArrow=none;endFill=0;" parent="1" source="ctAhxFMVK5xCa03oS9Rk-4" target="ctAhxFMVK5xCa03oS9Rk-1" edge="1">
          <mxGeometry relative="1" as="geometry" />
        </mxCell>
        <mxCell id="ctAhxFMVK5xCa03oS9Rk-4" value="Password" style="ellipse;whiteSpace=wrap;html=1;fontSize=16;" parent="1" vertex="1">
          <mxGeometry x="-349" y="-580" width="120" height="80" as="geometry" />
        </mxCell>
        <mxCell id="ctAhxFMVK5xCa03oS9Rk-8" value="Banner" style="rounded=0;whiteSpace=wrap;html=1;fontSize=16;" parent="1" vertex="1">
          <mxGeometry x="440" y="130" width="120" height="60" as="geometry" />
        </mxCell>
        <mxCell id="ctAhxFMVK5xCa03oS9Rk-15" style="edgeStyle=none;shape=connector;rounded=0;orthogonalLoop=1;jettySize=auto;html=1;exitX=0.5;exitY=0;exitDx=0;exitDy=0;entryX=0.5;entryY=1;entryDx=0;entryDy=0;labelBackgroundColor=default;strokeColor=default;fontFamily=Helvetica;fontSize=16;fontColor=default;endArrow=none;endFill=0;" parent="1" source="ctAhxFMVK5xCa03oS9Rk-10" target="ctAhxFMVK5xCa03oS9Rk-8" edge="1">
          <mxGeometry relative="1" as="geometry" />
        </mxCell>
        <mxCell id="ctAhxFMVK5xCa03oS9Rk-10" value="Id" style="ellipse;whiteSpace=wrap;html=1;fontSize=16;" parent="1" vertex="1">
          <mxGeometry x="440" y="250" width="120" height="80" as="geometry" />
        </mxCell>
        <mxCell id="ctAhxFMVK5xCa03oS9Rk-13" style="rounded=0;orthogonalLoop=1;jettySize=auto;html=1;exitX=0.5;exitY=1;exitDx=0;exitDy=0;fontSize=16;endArrow=none;endFill=0;" parent="1" source="ctAhxFMVK5xCa03oS9Rk-14" target="ctAhxFMVK5xCa03oS9Rk-8" edge="1">
          <mxGeometry relative="1" as="geometry" />
        </mxCell>
        <mxCell id="ctAhxFMVK5xCa03oS9Rk-14" value="Pic" style="ellipse;whiteSpace=wrap;html=1;fontSize=16;" parent="1" vertex="1">
          <mxGeometry x="440" width="120" height="80" as="geometry" />
        </mxCell>
        <mxCell id="ctAhxFMVK5xCa03oS9Rk-198" style="edgeStyle=none;shape=connector;rounded=0;orthogonalLoop=1;jettySize=auto;html=1;exitX=0;exitY=0.5;exitDx=0;exitDy=0;entryX=1;entryY=0.5;entryDx=0;entryDy=0;labelBackgroundColor=default;strokeColor=default;fontFamily=Helvetica;fontSize=16;fontColor=default;endArrow=none;endFill=0;" parent="1" source="ctAhxFMVK5xCa03oS9Rk-17" target="ctAhxFMVK5xCa03oS9Rk-189" edge="1">
          <mxGeometry relative="1" as="geometry" />
        </mxCell>
        <mxCell id="ctAhxFMVK5xCa03oS9Rk-219" style="edgeStyle=none;shape=connector;rounded=0;orthogonalLoop=1;jettySize=auto;html=1;exitX=1;exitY=0.5;exitDx=0;exitDy=0;entryX=0;entryY=0.5;entryDx=0;entryDy=0;labelBackgroundColor=default;strokeColor=default;fontFamily=Helvetica;fontSize=16;fontColor=default;endArrow=none;endFill=0;" parent="1" source="ctAhxFMVK5xCa03oS9Rk-17" target="ctAhxFMVK5xCa03oS9Rk-203" edge="1">
          <mxGeometry relative="1" as="geometry" />
        </mxCell>
        <mxCell id="ctAhxFMVK5xCa03oS9Rk-255" style="edgeStyle=none;shape=connector;rounded=0;orthogonalLoop=1;jettySize=auto;html=1;exitX=1;exitY=1;exitDx=0;exitDy=0;entryX=0.5;entryY=0;entryDx=0;entryDy=0;labelBackgroundColor=default;strokeColor=default;fontFamily=Helvetica;fontSize=16;fontColor=default;endArrow=none;endFill=0;" parent="1" source="ctAhxFMVK5xCa03oS9Rk-17" target="ctAhxFMVK5xCa03oS9Rk-240" edge="1">
          <mxGeometry relative="1" as="geometry" />
        </mxCell>
        <mxCell id="ctAhxFMVK5xCa03oS9Rk-291" style="edgeStyle=none;shape=connector;rounded=0;orthogonalLoop=1;jettySize=auto;html=1;exitX=1;exitY=0.5;exitDx=0;exitDy=0;entryX=0;entryY=0.5;entryDx=0;entryDy=0;labelBackgroundColor=default;strokeColor=default;fontFamily=Helvetica;fontSize=16;fontColor=default;endArrow=none;endFill=0;" parent="1" source="ctAhxFMVK5xCa03oS9Rk-17" target="ctAhxFMVK5xCa03oS9Rk-279" edge="1">
          <mxGeometry relative="1" as="geometry" />
        </mxCell>
        <mxCell id="MxxMs0gsNMaucJudg2Yt-31" style="edgeStyle=none;rounded=0;orthogonalLoop=1;jettySize=auto;html=1;exitX=0;exitY=0;exitDx=0;exitDy=0;entryX=0.5;entryY=1;entryDx=0;entryDy=0;endArrow=none;endFill=0;" edge="1" parent="1" source="ctAhxFMVK5xCa03oS9Rk-17" target="MxxMs0gsNMaucJudg2Yt-8">
          <mxGeometry relative="1" as="geometry" />
        </mxCell>
        <mxCell id="ctAhxFMVK5xCa03oS9Rk-17" value="Consumer" style="rounded=0;whiteSpace=wrap;html=1;fontSize=16;" parent="1" vertex="1">
          <mxGeometry x="-82" y="675" width="120" height="60" as="geometry" />
        </mxCell>
        <mxCell id="ctAhxFMVK5xCa03oS9Rk-18" style="rounded=0;orthogonalLoop=1;jettySize=auto;html=1;exitX=1;exitY=0;exitDx=0;exitDy=0;entryX=0.25;entryY=1;entryDx=0;entryDy=0;fontSize=16;endArrow=none;endFill=0;" parent="1" source="ctAhxFMVK5xCa03oS9Rk-19" target="ctAhxFMVK5xCa03oS9Rk-17" edge="1">
          <mxGeometry relative="1" as="geometry" />
        </mxCell>
        <mxCell id="ctAhxFMVK5xCa03oS9Rk-19" value="Id" style="ellipse;whiteSpace=wrap;html=1;fontSize=16;" parent="1" vertex="1">
          <mxGeometry x="-290" y="855" width="120" height="80" as="geometry" />
        </mxCell>
        <mxCell id="ctAhxFMVK5xCa03oS9Rk-20" style="rounded=0;orthogonalLoop=1;jettySize=auto;html=1;exitX=0;exitY=0;exitDx=0;exitDy=0;entryX=0.75;entryY=1;entryDx=0;entryDy=0;fontSize=16;endArrow=none;endFill=0;" parent="1" source="ctAhxFMVK5xCa03oS9Rk-21" target="ctAhxFMVK5xCa03oS9Rk-17" edge="1">
          <mxGeometry relative="1" as="geometry" />
        </mxCell>
        <mxCell id="ctAhxFMVK5xCa03oS9Rk-21" value="Username" style="ellipse;whiteSpace=wrap;html=1;fontSize=16;" parent="1" vertex="1">
          <mxGeometry x="48" y="870" width="120" height="80" as="geometry" />
        </mxCell>
        <mxCell id="ctAhxFMVK5xCa03oS9Rk-22" style="rounded=0;orthogonalLoop=1;jettySize=auto;html=1;exitX=0.5;exitY=1;exitDx=0;exitDy=0;fontSize=16;endArrow=none;endFill=0;" parent="1" source="ctAhxFMVK5xCa03oS9Rk-23" target="ctAhxFMVK5xCa03oS9Rk-17" edge="1">
          <mxGeometry relative="1" as="geometry" />
        </mxCell>
        <mxCell id="ctAhxFMVK5xCa03oS9Rk-23" value="Password" style="ellipse;whiteSpace=wrap;html=1;fontSize=16;" parent="1" vertex="1">
          <mxGeometry x="-150" y="370" width="120" height="80" as="geometry" />
        </mxCell>
        <mxCell id="ctAhxFMVK5xCa03oS9Rk-41" style="edgeStyle=none;shape=connector;rounded=0;orthogonalLoop=1;jettySize=auto;html=1;exitX=0;exitY=1;exitDx=0;exitDy=0;entryX=1;entryY=0;entryDx=0;entryDy=0;labelBackgroundColor=default;strokeColor=default;fontFamily=Helvetica;fontSize=16;fontColor=default;endArrow=none;endFill=0;" parent="1" source="ctAhxFMVK5xCa03oS9Rk-24" target="ctAhxFMVK5xCa03oS9Rk-17" edge="1">
          <mxGeometry relative="1" as="geometry" />
        </mxCell>
        <mxCell id="ctAhxFMVK5xCa03oS9Rk-24" value="Sex" style="ellipse;whiteSpace=wrap;html=1;fontSize=16;" parent="1" vertex="1">
          <mxGeometry x="178" y="485" width="120" height="80" as="geometry" />
        </mxCell>
        <mxCell id="ctAhxFMVK5xCa03oS9Rk-36" style="edgeStyle=none;shape=connector;rounded=0;orthogonalLoop=1;jettySize=auto;html=1;exitX=0;exitY=0;exitDx=0;exitDy=0;entryX=1;entryY=1;entryDx=0;entryDy=0;labelBackgroundColor=default;strokeColor=default;fontFamily=Helvetica;fontSize=16;fontColor=default;endArrow=none;endFill=0;" parent="1" source="ctAhxFMVK5xCa03oS9Rk-25" target="ctAhxFMVK5xCa03oS9Rk-17" edge="1">
          <mxGeometry relative="1" as="geometry" />
        </mxCell>
        <mxCell id="ctAhxFMVK5xCa03oS9Rk-25" value="Email" style="ellipse;whiteSpace=wrap;html=1;fontSize=16;" parent="1" vertex="1">
          <mxGeometry x="208" y="785" width="120" height="80" as="geometry" />
        </mxCell>
        <mxCell id="ctAhxFMVK5xCa03oS9Rk-39" style="edgeStyle=none;shape=connector;rounded=0;orthogonalLoop=1;jettySize=auto;html=1;exitX=0.5;exitY=1;exitDx=0;exitDy=0;entryX=0.25;entryY=0;entryDx=0;entryDy=0;labelBackgroundColor=default;strokeColor=default;fontFamily=Helvetica;fontSize=16;fontColor=default;endArrow=none;endFill=0;" parent="1" source="ctAhxFMVK5xCa03oS9Rk-26" target="ctAhxFMVK5xCa03oS9Rk-17" edge="1">
          <mxGeometry relative="1" as="geometry" />
        </mxCell>
        <mxCell id="ctAhxFMVK5xCa03oS9Rk-26" value="Birth" style="ellipse;whiteSpace=wrap;html=1;fontSize=16;" parent="1" vertex="1">
          <mxGeometry x="-212" y="455" width="120" height="80" as="geometry" />
        </mxCell>
        <mxCell id="ctAhxFMVK5xCa03oS9Rk-35" style="edgeStyle=none;shape=connector;rounded=0;orthogonalLoop=1;jettySize=auto;html=1;exitX=0.5;exitY=0;exitDx=0;exitDy=0;labelBackgroundColor=default;strokeColor=default;fontFamily=Helvetica;fontSize=16;fontColor=default;endArrow=none;endFill=0;" parent="1" source="ctAhxFMVK5xCa03oS9Rk-27" target="ctAhxFMVK5xCa03oS9Rk-17" edge="1">
          <mxGeometry relative="1" as="geometry" />
        </mxCell>
        <mxCell id="ctAhxFMVK5xCa03oS9Rk-27" value="Phone_number" style="ellipse;whiteSpace=wrap;html=1;fontSize=16;" parent="1" vertex="1">
          <mxGeometry x="-92" y="960" width="120" height="80" as="geometry" />
        </mxCell>
        <mxCell id="ctAhxFMVK5xCa03oS9Rk-37" style="edgeStyle=none;shape=connector;rounded=0;orthogonalLoop=1;jettySize=auto;html=1;exitX=1;exitY=0.5;exitDx=0;exitDy=0;entryX=0;entryY=0.25;entryDx=0;entryDy=0;labelBackgroundColor=default;strokeColor=default;fontFamily=Helvetica;fontSize=16;fontColor=default;endArrow=none;endFill=0;" parent="1" source="ctAhxFMVK5xCa03oS9Rk-29" target="ctAhxFMVK5xCa03oS9Rk-17" edge="1">
          <mxGeometry relative="1" as="geometry" />
        </mxCell>
        <mxCell id="ctAhxFMVK5xCa03oS9Rk-29" value="Avatar" style="ellipse;whiteSpace=wrap;html=1;fontSize=16;" parent="1" vertex="1">
          <mxGeometry x="-422" y="585" width="120" height="80" as="geometry" />
        </mxCell>
        <mxCell id="ctAhxFMVK5xCa03oS9Rk-40" style="edgeStyle=none;shape=connector;rounded=0;orthogonalLoop=1;jettySize=auto;html=1;exitX=0.5;exitY=1;exitDx=0;exitDy=0;entryX=0.75;entryY=0;entryDx=0;entryDy=0;labelBackgroundColor=default;strokeColor=default;fontFamily=Helvetica;fontSize=16;fontColor=default;endArrow=none;endFill=0;" parent="1" source="ctAhxFMVK5xCa03oS9Rk-30" target="ctAhxFMVK5xCa03oS9Rk-17" edge="1">
          <mxGeometry relative="1" as="geometry" />
        </mxCell>
        <mxCell id="ctAhxFMVK5xCa03oS9Rk-30" value="Create_time" style="ellipse;whiteSpace=wrap;html=1;fontSize=16;" parent="1" vertex="1">
          <mxGeometry x="-50" y="290" width="120" height="80" as="geometry" />
        </mxCell>
        <mxCell id="ctAhxFMVK5xCa03oS9Rk-42" style="edgeStyle=none;shape=connector;rounded=0;orthogonalLoop=1;jettySize=auto;html=1;exitX=1;exitY=0;exitDx=0;exitDy=0;entryX=0;entryY=0.75;entryDx=0;entryDy=0;labelBackgroundColor=default;strokeColor=default;fontFamily=Helvetica;fontSize=16;fontColor=default;endArrow=none;endFill=0;" parent="1" source="ctAhxFMVK5xCa03oS9Rk-31" target="ctAhxFMVK5xCa03oS9Rk-17" edge="1">
          <mxGeometry relative="1" as="geometry" />
        </mxCell>
        <mxCell id="ctAhxFMVK5xCa03oS9Rk-31" value="Update_time" style="ellipse;whiteSpace=wrap;html=1;fontSize=16;" parent="1" vertex="1">
          <mxGeometry x="-452" y="790" width="120" height="80" as="geometry" />
        </mxCell>
        <mxCell id="ctAhxFMVK5xCa03oS9Rk-44" style="edgeStyle=none;shape=connector;rounded=0;orthogonalLoop=1;jettySize=auto;html=1;exitX=0;exitY=0;exitDx=0;exitDy=0;entryX=0.5;entryY=1;entryDx=0;entryDy=0;labelBackgroundColor=default;strokeColor=default;fontFamily=Helvetica;fontSize=16;fontColor=default;endArrow=none;endFill=0;" parent="1" source="ctAhxFMVK5xCa03oS9Rk-32" target="ctAhxFMVK5xCa03oS9Rk-17" edge="1">
          <mxGeometry relative="1" as="geometry" />
        </mxCell>
        <mxCell id="ctAhxFMVK5xCa03oS9Rk-32" value="Location" style="ellipse;whiteSpace=wrap;html=1;fontSize=16;" parent="1" vertex="1">
          <mxGeometry x="48" y="980" width="120" height="80" as="geometry" />
        </mxCell>
        <mxCell id="ctAhxFMVK5xCa03oS9Rk-38" style="edgeStyle=none;shape=connector;rounded=0;orthogonalLoop=1;jettySize=auto;html=1;exitX=1;exitY=1;exitDx=0;exitDy=0;labelBackgroundColor=default;strokeColor=default;fontFamily=Helvetica;fontSize=16;fontColor=default;endArrow=none;endFill=0;" parent="1" source="ctAhxFMVK5xCa03oS9Rk-33" edge="1">
          <mxGeometry relative="1" as="geometry">
            <mxPoint x="-82" y="675" as="targetPoint" />
          </mxGeometry>
        </mxCell>
        <mxCell id="ctAhxFMVK5xCa03oS9Rk-33" value="Introduction" style="ellipse;whiteSpace=wrap;html=1;fontSize=16;" parent="1" vertex="1">
          <mxGeometry x="-362" y="505" width="120" height="80" as="geometry" />
        </mxCell>
        <mxCell id="ctAhxFMVK5xCa03oS9Rk-53" value="Singer" style="rounded=0;whiteSpace=wrap;html=1;fontSize=16;" parent="1" vertex="1">
          <mxGeometry x="-1065" y="2055" width="120" height="60" as="geometry" />
        </mxCell>
        <mxCell id="ctAhxFMVK5xCa03oS9Rk-78" style="edgeStyle=none;shape=connector;rounded=0;orthogonalLoop=1;jettySize=auto;html=1;exitX=0.5;exitY=0;exitDx=0;exitDy=0;entryX=0;entryY=1;entryDx=0;entryDy=0;labelBackgroundColor=default;strokeColor=default;fontFamily=Helvetica;fontSize=16;fontColor=default;endArrow=none;endFill=0;" parent="1" source="ctAhxFMVK5xCa03oS9Rk-55" target="ctAhxFMVK5xCa03oS9Rk-53" edge="1">
          <mxGeometry relative="1" as="geometry" />
        </mxCell>
        <mxCell id="ctAhxFMVK5xCa03oS9Rk-55" value="Id" style="ellipse;whiteSpace=wrap;html=1;fontSize=16;" parent="1" vertex="1">
          <mxGeometry x="-1235" y="2235" width="120" height="80" as="geometry" />
        </mxCell>
        <mxCell id="ctAhxFMVK5xCa03oS9Rk-80" style="edgeStyle=none;shape=connector;rounded=0;orthogonalLoop=1;jettySize=auto;html=1;exitX=0.5;exitY=0;exitDx=0;exitDy=0;entryX=1;entryY=1;entryDx=0;entryDy=0;labelBackgroundColor=default;strokeColor=default;fontFamily=Helvetica;fontSize=16;fontColor=default;endArrow=none;endFill=0;" parent="1" source="ctAhxFMVK5xCa03oS9Rk-57" target="ctAhxFMVK5xCa03oS9Rk-53" edge="1">
          <mxGeometry relative="1" as="geometry" />
        </mxCell>
        <mxCell id="ctAhxFMVK5xCa03oS9Rk-57" value="Name" style="ellipse;whiteSpace=wrap;html=1;fontSize=16;" parent="1" vertex="1">
          <mxGeometry x="-905" y="2235" width="120" height="80" as="geometry" />
        </mxCell>
        <mxCell id="ctAhxFMVK5xCa03oS9Rk-294" style="edgeStyle=none;shape=connector;rounded=0;orthogonalLoop=1;jettySize=auto;html=1;exitX=0;exitY=0.5;exitDx=0;exitDy=0;entryX=1;entryY=0.5;entryDx=0;entryDy=0;labelBackgroundColor=default;strokeColor=default;fontFamily=Helvetica;fontSize=16;fontColor=default;endArrow=none;endFill=0;" parent="1" source="ctAhxFMVK5xCa03oS9Rk-61" target="ctAhxFMVK5xCa03oS9Rk-53" edge="1">
          <mxGeometry relative="1" as="geometry" />
        </mxCell>
        <mxCell id="ctAhxFMVK5xCa03oS9Rk-61" value="Sex" style="ellipse;whiteSpace=wrap;html=1;fontSize=16;" parent="1" vertex="1">
          <mxGeometry x="-763" y="2045" width="120" height="80" as="geometry" />
        </mxCell>
        <mxCell id="ctAhxFMVK5xCa03oS9Rk-296" style="edgeStyle=none;shape=connector;rounded=0;orthogonalLoop=1;jettySize=auto;html=1;exitX=1;exitY=1;exitDx=0;exitDy=0;entryX=0;entryY=0;entryDx=0;entryDy=0;labelBackgroundColor=default;strokeColor=default;fontFamily=Helvetica;fontSize=16;fontColor=default;endArrow=none;endFill=0;" parent="1" source="ctAhxFMVK5xCa03oS9Rk-65" target="ctAhxFMVK5xCa03oS9Rk-53" edge="1">
          <mxGeometry relative="1" as="geometry" />
        </mxCell>
        <mxCell id="ctAhxFMVK5xCa03oS9Rk-65" value="Birth" style="ellipse;whiteSpace=wrap;html=1;fontSize=16;" parent="1" vertex="1">
          <mxGeometry x="-1310" y="1900" width="120" height="80" as="geometry" />
        </mxCell>
        <mxCell id="ctAhxFMVK5xCa03oS9Rk-297" style="edgeStyle=none;shape=connector;rounded=0;orthogonalLoop=1;jettySize=auto;html=1;exitX=0;exitY=1;exitDx=0;exitDy=0;entryX=1;entryY=0;entryDx=0;entryDy=0;labelBackgroundColor=default;strokeColor=default;fontFamily=Helvetica;fontSize=16;fontColor=default;endArrow=none;endFill=0;" parent="1" source="ctAhxFMVK5xCa03oS9Rk-69" target="ctAhxFMVK5xCa03oS9Rk-53" edge="1">
          <mxGeometry relative="1" as="geometry" />
        </mxCell>
        <mxCell id="ctAhxFMVK5xCa03oS9Rk-69" value="Pic" style="ellipse;whiteSpace=wrap;html=1;fontSize=16;" parent="1" vertex="1">
          <mxGeometry x="-825" y="1900" width="120" height="80" as="geometry" />
        </mxCell>
        <mxCell id="ctAhxFMVK5xCa03oS9Rk-79" style="edgeStyle=none;shape=connector;rounded=0;orthogonalLoop=1;jettySize=auto;html=1;exitX=0.5;exitY=0;exitDx=0;exitDy=0;entryX=0.5;entryY=1;entryDx=0;entryDy=0;labelBackgroundColor=default;strokeColor=default;fontFamily=Helvetica;fontSize=16;fontColor=default;endArrow=none;endFill=0;" parent="1" source="ctAhxFMVK5xCa03oS9Rk-75" target="ctAhxFMVK5xCa03oS9Rk-53" edge="1">
          <mxGeometry relative="1" as="geometry" />
        </mxCell>
        <mxCell id="ctAhxFMVK5xCa03oS9Rk-75" value="Location" style="ellipse;whiteSpace=wrap;html=1;fontSize=16;" parent="1" vertex="1">
          <mxGeometry x="-1065" y="2245" width="120" height="80" as="geometry" />
        </mxCell>
        <mxCell id="ctAhxFMVK5xCa03oS9Rk-295" style="edgeStyle=none;shape=connector;rounded=0;orthogonalLoop=1;jettySize=auto;html=1;exitX=1;exitY=0.5;exitDx=0;exitDy=0;entryX=0;entryY=0.5;entryDx=0;entryDy=0;labelBackgroundColor=default;strokeColor=default;fontFamily=Helvetica;fontSize=16;fontColor=default;endArrow=none;endFill=0;" parent="1" source="ctAhxFMVK5xCa03oS9Rk-77" target="ctAhxFMVK5xCa03oS9Rk-53" edge="1">
          <mxGeometry relative="1" as="geometry" />
        </mxCell>
        <mxCell id="ctAhxFMVK5xCa03oS9Rk-77" value="Introduction" style="ellipse;whiteSpace=wrap;html=1;fontSize=16;" parent="1" vertex="1">
          <mxGeometry x="-1350" y="2030" width="120" height="80" as="geometry" />
        </mxCell>
        <mxCell id="ctAhxFMVK5xCa03oS9Rk-238" style="edgeStyle=none;shape=connector;rounded=0;orthogonalLoop=1;jettySize=auto;html=1;exitX=1;exitY=0.5;exitDx=0;exitDy=0;entryX=0;entryY=0.5;entryDx=0;entryDy=0;labelBackgroundColor=default;strokeColor=default;fontFamily=Helvetica;fontSize=16;fontColor=default;endArrow=none;endFill=0;" parent="1" source="ctAhxFMVK5xCa03oS9Rk-135" target="ctAhxFMVK5xCa03oS9Rk-223" edge="1">
          <mxGeometry relative="1" as="geometry" />
        </mxCell>
        <mxCell id="ctAhxFMVK5xCa03oS9Rk-276" style="edgeStyle=none;shape=connector;rounded=0;orthogonalLoop=1;jettySize=auto;html=1;exitX=1;exitY=0.5;exitDx=0;exitDy=0;entryX=0;entryY=0.5;entryDx=0;entryDy=0;labelBackgroundColor=default;strokeColor=default;fontFamily=Helvetica;fontSize=16;fontColor=default;endArrow=none;endFill=0;" parent="1" source="ctAhxFMVK5xCa03oS9Rk-135" target="ctAhxFMVK5xCa03oS9Rk-257" edge="1">
          <mxGeometry relative="1" as="geometry" />
        </mxCell>
        <mxCell id="ctAhxFMVK5xCa03oS9Rk-300" style="edgeStyle=none;shape=connector;rounded=0;orthogonalLoop=1;jettySize=auto;html=1;exitX=0.5;exitY=1;exitDx=0;exitDy=0;entryX=0.5;entryY=0;entryDx=0;entryDy=0;labelBackgroundColor=default;strokeColor=default;fontFamily=Helvetica;fontSize=16;fontColor=default;endArrow=none;endFill=0;" parent="1" source="ctAhxFMVK5xCa03oS9Rk-135" target="ctAhxFMVK5xCa03oS9Rk-299" edge="1">
          <mxGeometry relative="1" as="geometry" />
        </mxCell>
        <mxCell id="ctAhxFMVK5xCa03oS9Rk-135" value="Song" style="rounded=0;whiteSpace=wrap;html=1;fontSize=16;" parent="1" vertex="1">
          <mxGeometry x="-1065" y="1450" width="120" height="60" as="geometry" />
        </mxCell>
        <mxCell id="ctAhxFMVK5xCa03oS9Rk-165" style="edgeStyle=none;shape=connector;rounded=0;orthogonalLoop=1;jettySize=auto;html=1;exitX=1;exitY=0;exitDx=0;exitDy=0;entryX=0;entryY=1;entryDx=0;entryDy=0;labelBackgroundColor=default;strokeColor=default;fontFamily=Helvetica;fontSize=16;fontColor=default;endArrow=none;endFill=0;" parent="1" source="ctAhxFMVK5xCa03oS9Rk-137" target="ctAhxFMVK5xCa03oS9Rk-135" edge="1">
          <mxGeometry relative="1" as="geometry" />
        </mxCell>
        <mxCell id="ctAhxFMVK5xCa03oS9Rk-137" value="Id" style="ellipse;whiteSpace=wrap;html=1;fontSize=16;" parent="1" vertex="1">
          <mxGeometry x="-1310" y="1580" width="120" height="80" as="geometry" />
        </mxCell>
        <mxCell id="ctAhxFMVK5xCa03oS9Rk-168" style="edgeStyle=none;shape=connector;rounded=0;orthogonalLoop=1;jettySize=auto;html=1;exitX=0;exitY=0;exitDx=0;exitDy=0;entryX=1;entryY=1;entryDx=0;entryDy=0;labelBackgroundColor=default;strokeColor=default;fontFamily=Helvetica;fontSize=16;fontColor=default;endArrow=none;endFill=0;" parent="1" source="ctAhxFMVK5xCa03oS9Rk-139" target="ctAhxFMVK5xCa03oS9Rk-135" edge="1">
          <mxGeometry relative="1" as="geometry" />
        </mxCell>
        <mxCell id="ctAhxFMVK5xCa03oS9Rk-139" value="Name" style="ellipse;whiteSpace=wrap;html=1;fontSize=16;" parent="1" vertex="1">
          <mxGeometry x="-825" y="1610" width="120" height="80" as="geometry" />
        </mxCell>
        <mxCell id="ctAhxFMVK5xCa03oS9Rk-164" style="edgeStyle=none;shape=connector;rounded=0;orthogonalLoop=1;jettySize=auto;html=1;exitX=0;exitY=1;exitDx=0;exitDy=0;entryX=1;entryY=0;entryDx=0;entryDy=0;labelBackgroundColor=default;strokeColor=default;fontFamily=Helvetica;fontSize=16;fontColor=default;endArrow=none;endFill=0;" parent="1" source="ctAhxFMVK5xCa03oS9Rk-143" target="ctAhxFMVK5xCa03oS9Rk-135" edge="1">
          <mxGeometry relative="1" as="geometry" />
        </mxCell>
        <mxCell id="ctAhxFMVK5xCa03oS9Rk-143" value="Singer_id" style="ellipse;whiteSpace=wrap;html=1;fontSize=16;" parent="1" vertex="1">
          <mxGeometry x="-805" y="1260" width="120" height="80" as="geometry" />
        </mxCell>
        <mxCell id="ctAhxFMVK5xCa03oS9Rk-166" style="edgeStyle=none;shape=connector;rounded=0;orthogonalLoop=1;jettySize=auto;html=1;exitX=0.5;exitY=0;exitDx=0;exitDy=0;entryX=0.25;entryY=1;entryDx=0;entryDy=0;labelBackgroundColor=default;strokeColor=default;fontFamily=Helvetica;fontSize=16;fontColor=default;endArrow=none;endFill=0;" parent="1" source="ctAhxFMVK5xCa03oS9Rk-149" target="ctAhxFMVK5xCa03oS9Rk-135" edge="1">
          <mxGeometry relative="1" as="geometry" />
        </mxCell>
        <mxCell id="ctAhxFMVK5xCa03oS9Rk-149" value="Url" style="ellipse;whiteSpace=wrap;html=1;fontSize=16;" parent="1" vertex="1">
          <mxGeometry x="-1165" y="1630" width="120" height="80" as="geometry" />
        </mxCell>
        <mxCell id="ctAhxFMVK5xCa03oS9Rk-160" style="edgeStyle=none;shape=connector;rounded=0;orthogonalLoop=1;jettySize=auto;html=1;exitX=1;exitY=1;exitDx=0;exitDy=0;entryX=0;entryY=0;entryDx=0;entryDy=0;labelBackgroundColor=default;strokeColor=default;fontFamily=Helvetica;fontSize=16;fontColor=default;endArrow=none;endFill=0;" parent="1" source="ctAhxFMVK5xCa03oS9Rk-151" target="ctAhxFMVK5xCa03oS9Rk-135" edge="1">
          <mxGeometry relative="1" as="geometry" />
        </mxCell>
        <mxCell id="ctAhxFMVK5xCa03oS9Rk-151" value="Pic" style="ellipse;whiteSpace=wrap;html=1;fontSize=16;" parent="1" vertex="1">
          <mxGeometry x="-1375" y="1340" width="120" height="80" as="geometry" />
        </mxCell>
        <mxCell id="glJbVPCEfy5f578Npy7e-17" style="edgeStyle=none;rounded=0;orthogonalLoop=1;jettySize=auto;html=1;exitX=1;exitY=0.5;exitDx=0;exitDy=0;entryX=0;entryY=0.5;entryDx=0;entryDy=0;endArrow=none;endFill=0;" parent="1" source="ctAhxFMVK5xCa03oS9Rk-153" target="ctAhxFMVK5xCa03oS9Rk-135" edge="1">
          <mxGeometry relative="1" as="geometry" />
        </mxCell>
        <mxCell id="ctAhxFMVK5xCa03oS9Rk-153" value="Create_time" style="ellipse;whiteSpace=wrap;html=1;fontSize=16;" parent="1" vertex="1">
          <mxGeometry x="-1380" y="1477" width="120" height="80" as="geometry" />
        </mxCell>
        <mxCell id="ctAhxFMVK5xCa03oS9Rk-161" style="edgeStyle=none;shape=connector;rounded=0;orthogonalLoop=1;jettySize=auto;html=1;exitX=1;exitY=1;exitDx=0;exitDy=0;entryX=0.25;entryY=0;entryDx=0;entryDy=0;labelBackgroundColor=default;strokeColor=default;fontFamily=Helvetica;fontSize=16;fontColor=default;endArrow=none;endFill=0;" parent="1" source="ctAhxFMVK5xCa03oS9Rk-155" target="ctAhxFMVK5xCa03oS9Rk-135" edge="1">
          <mxGeometry relative="1" as="geometry" />
        </mxCell>
        <mxCell id="ctAhxFMVK5xCa03oS9Rk-155" value="Update_time" style="ellipse;whiteSpace=wrap;html=1;fontSize=16;" parent="1" vertex="1">
          <mxGeometry x="-1268" y="1250" width="120" height="80" as="geometry" />
        </mxCell>
        <mxCell id="ctAhxFMVK5xCa03oS9Rk-167" style="edgeStyle=none;shape=connector;rounded=0;orthogonalLoop=1;jettySize=auto;html=1;exitX=0;exitY=0;exitDx=0;exitDy=0;entryX=0.75;entryY=1;entryDx=0;entryDy=0;labelBackgroundColor=default;strokeColor=default;fontFamily=Helvetica;fontSize=16;fontColor=default;endArrow=none;endFill=0;" parent="1" source="ctAhxFMVK5xCa03oS9Rk-157" target="ctAhxFMVK5xCa03oS9Rk-135" edge="1">
          <mxGeometry relative="1" as="geometry" />
        </mxCell>
        <mxCell id="ctAhxFMVK5xCa03oS9Rk-157" value="Lyric" style="ellipse;whiteSpace=wrap;html=1;fontSize=16;" parent="1" vertex="1">
          <mxGeometry x="-975" y="1620" width="120" height="80" as="geometry" />
        </mxCell>
        <mxCell id="ctAhxFMVK5xCa03oS9Rk-162" style="edgeStyle=none;shape=connector;rounded=0;orthogonalLoop=1;jettySize=auto;html=1;exitX=0.5;exitY=1;exitDx=0;exitDy=0;entryX=0.5;entryY=0;entryDx=0;entryDy=0;labelBackgroundColor=default;strokeColor=default;fontFamily=Helvetica;fontSize=16;fontColor=default;endArrow=none;endFill=0;" parent="1" source="ctAhxFMVK5xCa03oS9Rk-159" target="ctAhxFMVK5xCa03oS9Rk-135" edge="1">
          <mxGeometry relative="1" as="geometry" />
        </mxCell>
        <mxCell id="ctAhxFMVK5xCa03oS9Rk-159" value="Introduction" style="ellipse;whiteSpace=wrap;html=1;fontSize=16;" parent="1" vertex="1">
          <mxGeometry x="-1115" y="1230" width="120" height="80" as="geometry" />
        </mxCell>
        <mxCell id="ctAhxFMVK5xCa03oS9Rk-169" value="Song_list" style="rounded=0;whiteSpace=wrap;html=1;fontSize=16;" parent="1" vertex="1">
          <mxGeometry x="930" y="1432" width="120" height="60" as="geometry" />
        </mxCell>
        <mxCell id="ctAhxFMVK5xCa03oS9Rk-187" style="edgeStyle=none;shape=connector;rounded=0;orthogonalLoop=1;jettySize=auto;html=1;exitX=1;exitY=0;exitDx=0;exitDy=0;entryX=0;entryY=1;entryDx=0;entryDy=0;labelBackgroundColor=default;strokeColor=default;fontFamily=Helvetica;fontSize=16;fontColor=default;endArrow=none;endFill=0;" parent="1" source="ctAhxFMVK5xCa03oS9Rk-171" target="ctAhxFMVK5xCa03oS9Rk-169" edge="1">
          <mxGeometry relative="1" as="geometry" />
        </mxCell>
        <mxCell id="ctAhxFMVK5xCa03oS9Rk-171" value="Id" style="ellipse;whiteSpace=wrap;html=1;fontSize=16;" parent="1" vertex="1">
          <mxGeometry x="697" y="1490" width="120" height="80" as="geometry" />
        </mxCell>
        <mxCell id="ctAhxFMVK5xCa03oS9Rk-186" style="edgeStyle=none;shape=connector;rounded=0;orthogonalLoop=1;jettySize=auto;html=1;exitX=0;exitY=1;exitDx=0;exitDy=0;entryX=1;entryY=0;entryDx=0;entryDy=0;labelBackgroundColor=default;strokeColor=default;fontFamily=Helvetica;fontSize=16;fontColor=default;endArrow=none;endFill=0;" parent="1" source="ctAhxFMVK5xCa03oS9Rk-175" target="ctAhxFMVK5xCa03oS9Rk-169" edge="1">
          <mxGeometry relative="1" as="geometry" />
        </mxCell>
        <mxCell id="ctAhxFMVK5xCa03oS9Rk-175" value="Style" style="ellipse;whiteSpace=wrap;html=1;fontSize=16;" parent="1" vertex="1">
          <mxGeometry x="1100" y="1302" width="120" height="80" as="geometry" />
        </mxCell>
        <mxCell id="ctAhxFMVK5xCa03oS9Rk-184" style="edgeStyle=none;shape=connector;rounded=0;orthogonalLoop=1;jettySize=auto;html=1;exitX=1;exitY=1;exitDx=0;exitDy=0;entryX=0;entryY=0;entryDx=0;entryDy=0;labelBackgroundColor=default;strokeColor=default;fontFamily=Helvetica;fontSize=16;fontColor=default;endArrow=none;endFill=0;" parent="1" source="ctAhxFMVK5xCa03oS9Rk-177" target="ctAhxFMVK5xCa03oS9Rk-169" edge="1">
          <mxGeometry relative="1" as="geometry" />
        </mxCell>
        <mxCell id="ctAhxFMVK5xCa03oS9Rk-177" value="Title" style="ellipse;whiteSpace=wrap;html=1;fontSize=16;" parent="1" vertex="1">
          <mxGeometry x="760" y="1302" width="120" height="80" as="geometry" />
        </mxCell>
        <mxCell id="ctAhxFMVK5xCa03oS9Rk-221" style="edgeStyle=none;shape=connector;rounded=0;orthogonalLoop=1;jettySize=auto;html=1;exitX=0.5;exitY=0;exitDx=0;exitDy=0;entryX=0.5;entryY=1;entryDx=0;entryDy=0;labelBackgroundColor=default;strokeColor=default;fontFamily=Helvetica;fontSize=16;fontColor=default;endArrow=none;endFill=0;" parent="1" source="ctAhxFMVK5xCa03oS9Rk-179" target="ctAhxFMVK5xCa03oS9Rk-169" edge="1">
          <mxGeometry relative="1" as="geometry" />
        </mxCell>
        <mxCell id="ctAhxFMVK5xCa03oS9Rk-179" value="Pic" style="ellipse;whiteSpace=wrap;html=1;fontSize=16;" parent="1" vertex="1">
          <mxGeometry x="930" y="1640" width="120" height="80" as="geometry" />
        </mxCell>
        <mxCell id="ctAhxFMVK5xCa03oS9Rk-188" style="edgeStyle=none;shape=connector;rounded=0;orthogonalLoop=1;jettySize=auto;html=1;exitX=0;exitY=0;exitDx=0;exitDy=0;entryX=1;entryY=1;entryDx=0;entryDy=0;labelBackgroundColor=default;strokeColor=default;fontFamily=Helvetica;fontSize=16;fontColor=default;endArrow=none;endFill=0;" parent="1" source="ctAhxFMVK5xCa03oS9Rk-183" target="ctAhxFMVK5xCa03oS9Rk-169" edge="1">
          <mxGeometry relative="1" as="geometry" />
        </mxCell>
        <mxCell id="ctAhxFMVK5xCa03oS9Rk-183" value="Introduction" style="ellipse;whiteSpace=wrap;html=1;fontSize=16;" parent="1" vertex="1">
          <mxGeometry x="1050" y="1552" width="120" height="80" as="geometry" />
        </mxCell>
        <mxCell id="ctAhxFMVK5xCa03oS9Rk-199" style="edgeStyle=none;shape=connector;rounded=0;orthogonalLoop=1;jettySize=auto;html=1;exitX=0.5;exitY=1;exitDx=0;exitDy=0;entryX=0.75;entryY=0;entryDx=0;entryDy=0;labelBackgroundColor=default;strokeColor=default;fontFamily=Helvetica;fontSize=16;fontColor=default;endArrow=none;endFill=0;" parent="1" source="ctAhxFMVK5xCa03oS9Rk-189" target="ctAhxFMVK5xCa03oS9Rk-135" edge="1">
          <mxGeometry relative="1" as="geometry" />
        </mxCell>
        <mxCell id="ctAhxFMVK5xCa03oS9Rk-189" value="Collect" style="rhombus;whiteSpace=wrap;html=1;fontFamily=Helvetica;fontSize=16;fontColor=default;" parent="1" vertex="1">
          <mxGeometry x="-803" y="765" width="160" height="100" as="geometry" />
        </mxCell>
        <mxCell id="ctAhxFMVK5xCa03oS9Rk-200" style="edgeStyle=none;shape=connector;rounded=0;orthogonalLoop=1;jettySize=auto;html=1;exitX=1;exitY=1;exitDx=0;exitDy=0;entryX=0;entryY=0;entryDx=0;entryDy=0;labelBackgroundColor=default;strokeColor=default;fontFamily=Helvetica;fontSize=16;fontColor=default;endArrow=none;endFill=0;" parent="1" source="ctAhxFMVK5xCa03oS9Rk-190" target="ctAhxFMVK5xCa03oS9Rk-189" edge="1">
          <mxGeometry relative="1" as="geometry" />
        </mxCell>
        <mxCell id="ctAhxFMVK5xCa03oS9Rk-190" value="User_id" style="ellipse;whiteSpace=wrap;html=1;fontSize=16;" parent="1" vertex="1">
          <mxGeometry x="-1030" y="560" width="120" height="80" as="geometry" />
        </mxCell>
        <mxCell id="ctAhxFMVK5xCa03oS9Rk-196" style="edgeStyle=none;shape=connector;rounded=0;orthogonalLoop=1;jettySize=auto;html=1;exitX=1;exitY=0.5;exitDx=0;exitDy=0;entryX=0;entryY=0.5;entryDx=0;entryDy=0;labelBackgroundColor=default;strokeColor=default;fontFamily=Helvetica;fontSize=16;fontColor=default;endArrow=none;endFill=0;" parent="1" source="ctAhxFMVK5xCa03oS9Rk-191" target="ctAhxFMVK5xCa03oS9Rk-189" edge="1">
          <mxGeometry relative="1" as="geometry" />
        </mxCell>
        <mxCell id="ctAhxFMVK5xCa03oS9Rk-191" value="Id" style="ellipse;whiteSpace=wrap;html=1;fontSize=16;" parent="1" vertex="1">
          <mxGeometry x="-1120" y="700" width="120" height="80" as="geometry" />
        </mxCell>
        <mxCell id="ctAhxFMVK5xCa03oS9Rk-202" style="edgeStyle=none;shape=connector;rounded=0;orthogonalLoop=1;jettySize=auto;html=1;exitX=0.5;exitY=1;exitDx=0;exitDy=0;entryX=1;entryY=0;entryDx=0;entryDy=0;labelBackgroundColor=default;strokeColor=default;fontFamily=Helvetica;fontSize=16;fontColor=default;endArrow=none;endFill=0;" parent="1" source="ctAhxFMVK5xCa03oS9Rk-193" target="ctAhxFMVK5xCa03oS9Rk-189" edge="1">
          <mxGeometry relative="1" as="geometry" />
        </mxCell>
        <mxCell id="ctAhxFMVK5xCa03oS9Rk-193" value="Type" style="ellipse;whiteSpace=wrap;html=1;fontSize=16;" parent="1" vertex="1">
          <mxGeometry x="-673" y="460" width="120" height="80" as="geometry" />
        </mxCell>
        <mxCell id="ctAhxFMVK5xCa03oS9Rk-201" style="edgeStyle=none;shape=connector;rounded=0;orthogonalLoop=1;jettySize=auto;html=1;exitX=1;exitY=1;exitDx=0;exitDy=0;entryX=0.5;entryY=0;entryDx=0;entryDy=0;labelBackgroundColor=default;strokeColor=default;fontFamily=Helvetica;fontSize=16;fontColor=default;endArrow=none;endFill=0;" parent="1" source="ctAhxFMVK5xCa03oS9Rk-194" target="ctAhxFMVK5xCa03oS9Rk-189" edge="1">
          <mxGeometry relative="1" as="geometry" />
        </mxCell>
        <mxCell id="ctAhxFMVK5xCa03oS9Rk-194" value="Song_id" style="ellipse;whiteSpace=wrap;html=1;fontSize=16;" parent="1" vertex="1">
          <mxGeometry x="-883" y="445" width="120" height="80" as="geometry" />
        </mxCell>
        <mxCell id="ctAhxFMVK5xCa03oS9Rk-197" style="edgeStyle=none;shape=connector;rounded=0;orthogonalLoop=1;jettySize=auto;html=1;exitX=1;exitY=0.5;exitDx=0;exitDy=0;entryX=0;entryY=1;entryDx=0;entryDy=0;labelBackgroundColor=default;strokeColor=default;fontFamily=Helvetica;fontSize=16;fontColor=default;endArrow=none;endFill=0;" parent="1" source="ctAhxFMVK5xCa03oS9Rk-195" target="ctAhxFMVK5xCa03oS9Rk-189" edge="1">
          <mxGeometry relative="1" as="geometry" />
        </mxCell>
        <mxCell id="ctAhxFMVK5xCa03oS9Rk-195" value="Create_time" style="ellipse;whiteSpace=wrap;html=1;fontSize=16;" parent="1" vertex="1">
          <mxGeometry x="-1090" y="855" width="120" height="80" as="geometry" />
        </mxCell>
        <mxCell id="ctAhxFMVK5xCa03oS9Rk-222" style="edgeStyle=none;shape=connector;rounded=0;orthogonalLoop=1;jettySize=auto;html=1;exitX=0.5;exitY=1;exitDx=0;exitDy=0;entryX=0.75;entryY=0;entryDx=0;entryDy=0;labelBackgroundColor=default;strokeColor=default;fontFamily=Helvetica;fontSize=16;fontColor=default;endArrow=none;endFill=0;" parent="1" source="ctAhxFMVK5xCa03oS9Rk-203" target="ctAhxFMVK5xCa03oS9Rk-169" edge="1">
          <mxGeometry relative="1" as="geometry" />
        </mxCell>
        <mxCell id="ctAhxFMVK5xCa03oS9Rk-203" value="Collect" style="rhombus;whiteSpace=wrap;html=1;fontFamily=Helvetica;fontSize=16;fontColor=default;" parent="1" vertex="1">
          <mxGeometry x="1140" y="355" width="160" height="100" as="geometry" />
        </mxCell>
        <mxCell id="ctAhxFMVK5xCa03oS9Rk-214" style="edgeStyle=none;shape=connector;rounded=0;orthogonalLoop=1;jettySize=auto;html=1;exitX=1;exitY=1;exitDx=0;exitDy=0;entryX=0;entryY=0;entryDx=0;entryDy=0;labelBackgroundColor=default;strokeColor=default;fontFamily=Helvetica;fontSize=16;fontColor=default;endArrow=none;endFill=0;" parent="1" source="ctAhxFMVK5xCa03oS9Rk-205" target="ctAhxFMVK5xCa03oS9Rk-203" edge="1">
          <mxGeometry relative="1" as="geometry" />
        </mxCell>
        <mxCell id="ctAhxFMVK5xCa03oS9Rk-205" value="User_id" style="ellipse;whiteSpace=wrap;html=1;fontSize=16;" parent="1" vertex="1">
          <mxGeometry x="990" y="195" width="120" height="80" as="geometry" />
        </mxCell>
        <mxCell id="ctAhxFMVK5xCa03oS9Rk-217" style="edgeStyle=none;shape=connector;rounded=0;orthogonalLoop=1;jettySize=auto;html=1;exitX=0;exitY=0;exitDx=0;exitDy=0;entryX=0.844;entryY=0.66;entryDx=0;entryDy=0;entryPerimeter=0;labelBackgroundColor=default;strokeColor=default;fontFamily=Helvetica;fontSize=16;fontColor=default;endArrow=none;endFill=0;" parent="1" source="ctAhxFMVK5xCa03oS9Rk-207" target="ctAhxFMVK5xCa03oS9Rk-203" edge="1">
          <mxGeometry relative="1" as="geometry" />
        </mxCell>
        <mxCell id="ctAhxFMVK5xCa03oS9Rk-207" value="Id" style="ellipse;whiteSpace=wrap;html=1;fontSize=16;" parent="1" vertex="1">
          <mxGeometry x="1297" y="585" width="120" height="80" as="geometry" />
        </mxCell>
        <mxCell id="ctAhxFMVK5xCa03oS9Rk-216" style="edgeStyle=none;shape=connector;rounded=0;orthogonalLoop=1;jettySize=auto;html=1;exitX=0.5;exitY=1;exitDx=0;exitDy=0;labelBackgroundColor=default;strokeColor=default;fontFamily=Helvetica;fontSize=16;fontColor=default;endArrow=none;endFill=0;" parent="1" source="ctAhxFMVK5xCa03oS9Rk-209" target="ctAhxFMVK5xCa03oS9Rk-203" edge="1">
          <mxGeometry relative="1" as="geometry" />
        </mxCell>
        <mxCell id="ctAhxFMVK5xCa03oS9Rk-209" value="Type" style="ellipse;whiteSpace=wrap;html=1;fontSize=16;" parent="1" vertex="1">
          <mxGeometry x="1320" y="160" width="120" height="80" as="geometry" />
        </mxCell>
        <mxCell id="ctAhxFMVK5xCa03oS9Rk-215" style="edgeStyle=none;shape=connector;rounded=0;orthogonalLoop=1;jettySize=auto;html=1;exitX=0.5;exitY=1;exitDx=0;exitDy=0;entryX=0.5;entryY=0;entryDx=0;entryDy=0;labelBackgroundColor=default;strokeColor=default;fontFamily=Helvetica;fontSize=16;fontColor=default;endArrow=none;endFill=0;" parent="1" source="ctAhxFMVK5xCa03oS9Rk-211" target="ctAhxFMVK5xCa03oS9Rk-203" edge="1">
          <mxGeometry relative="1" as="geometry" />
        </mxCell>
        <mxCell id="ctAhxFMVK5xCa03oS9Rk-211" value="Song_list_id" style="ellipse;whiteSpace=wrap;html=1;fontSize=16;" parent="1" vertex="1">
          <mxGeometry x="1160" y="105" width="120" height="80" as="geometry" />
        </mxCell>
        <mxCell id="ctAhxFMVK5xCa03oS9Rk-278" style="edgeStyle=none;shape=connector;rounded=0;orthogonalLoop=1;jettySize=auto;html=1;exitX=0;exitY=0.5;exitDx=0;exitDy=0;entryX=1;entryY=0.5;entryDx=0;entryDy=0;labelBackgroundColor=default;strokeColor=default;fontFamily=Helvetica;fontSize=16;fontColor=default;endArrow=none;endFill=0;" parent="1" source="ctAhxFMVK5xCa03oS9Rk-213" target="ctAhxFMVK5xCa03oS9Rk-203" edge="1">
          <mxGeometry relative="1" as="geometry" />
        </mxCell>
        <mxCell id="ctAhxFMVK5xCa03oS9Rk-213" value="Create_time" style="ellipse;whiteSpace=wrap;html=1;fontSize=16;" parent="1" vertex="1">
          <mxGeometry x="1470" y="280" width="120" height="80" as="geometry" />
        </mxCell>
        <mxCell id="ctAhxFMVK5xCa03oS9Rk-239" style="edgeStyle=none;shape=connector;rounded=0;orthogonalLoop=1;jettySize=auto;html=1;exitX=0.5;exitY=0;exitDx=0;exitDy=0;entryX=0.25;entryY=1;entryDx=0;entryDy=0;labelBackgroundColor=default;strokeColor=default;fontFamily=Helvetica;fontSize=16;fontColor=default;endArrow=none;endFill=0;" parent="1" source="ctAhxFMVK5xCa03oS9Rk-223" target="ctAhxFMVK5xCa03oS9Rk-17" edge="1">
          <mxGeometry relative="1" as="geometry" />
        </mxCell>
        <mxCell id="ctAhxFMVK5xCa03oS9Rk-223" value="Comment" style="rhombus;whiteSpace=wrap;html=1;fontFamily=Helvetica;fontSize=16;fontColor=default;" parent="1" vertex="1">
          <mxGeometry x="-242" y="1390" width="160" height="100" as="geometry" />
        </mxCell>
        <mxCell id="ctAhxFMVK5xCa03oS9Rk-224" style="edgeStyle=none;shape=connector;rounded=0;orthogonalLoop=1;jettySize=auto;html=1;exitX=1;exitY=1;exitDx=0;exitDy=0;entryX=0;entryY=0;entryDx=0;entryDy=0;labelBackgroundColor=default;strokeColor=default;fontFamily=Helvetica;fontSize=16;fontColor=default;endArrow=none;endFill=0;" parent="1" source="ctAhxFMVK5xCa03oS9Rk-225" target="ctAhxFMVK5xCa03oS9Rk-223" edge="1">
          <mxGeometry relative="1" as="geometry" />
        </mxCell>
        <mxCell id="ctAhxFMVK5xCa03oS9Rk-225" value="User_id" style="ellipse;whiteSpace=wrap;html=1;fontSize=16;" parent="1" vertex="1">
          <mxGeometry x="-469" y="1185" width="120" height="80" as="geometry" />
        </mxCell>
        <mxCell id="glJbVPCEfy5f578Npy7e-18" style="edgeStyle=none;rounded=0;orthogonalLoop=1;jettySize=auto;html=1;exitX=1;exitY=0.5;exitDx=0;exitDy=0;endArrow=none;endFill=0;" parent="1" source="ctAhxFMVK5xCa03oS9Rk-227" target="ctAhxFMVK5xCa03oS9Rk-223" edge="1">
          <mxGeometry relative="1" as="geometry" />
        </mxCell>
        <mxCell id="ctAhxFMVK5xCa03oS9Rk-227" value="Id" style="ellipse;whiteSpace=wrap;html=1;fontSize=16;" parent="1" vertex="1">
          <mxGeometry x="-542" y="1310" width="120" height="80" as="geometry" />
        </mxCell>
        <mxCell id="ctAhxFMVK5xCa03oS9Rk-228" style="edgeStyle=none;shape=connector;rounded=0;orthogonalLoop=1;jettySize=auto;html=1;exitX=0.5;exitY=1;exitDx=0;exitDy=0;entryX=1;entryY=0;entryDx=0;entryDy=0;labelBackgroundColor=default;strokeColor=default;fontFamily=Helvetica;fontSize=16;fontColor=default;endArrow=none;endFill=0;" parent="1" source="ctAhxFMVK5xCa03oS9Rk-229" target="ctAhxFMVK5xCa03oS9Rk-223" edge="1">
          <mxGeometry relative="1" as="geometry" />
        </mxCell>
        <mxCell id="ctAhxFMVK5xCa03oS9Rk-229" value="Type" style="ellipse;whiteSpace=wrap;html=1;fontSize=16;" parent="1" vertex="1">
          <mxGeometry x="-112" y="1085" width="120" height="80" as="geometry" />
        </mxCell>
        <mxCell id="glJbVPCEfy5f578Npy7e-19" style="edgeStyle=none;rounded=0;orthogonalLoop=1;jettySize=auto;html=1;exitX=0.5;exitY=1;exitDx=0;exitDy=0;endArrow=none;endFill=0;" parent="1" source="ctAhxFMVK5xCa03oS9Rk-231" target="ctAhxFMVK5xCa03oS9Rk-223" edge="1">
          <mxGeometry relative="1" as="geometry" />
        </mxCell>
        <mxCell id="ctAhxFMVK5xCa03oS9Rk-231" value="Song_id" style="ellipse;whiteSpace=wrap;html=1;fontSize=16;" parent="1" vertex="1">
          <mxGeometry x="-322" y="1070" width="120" height="80" as="geometry" />
        </mxCell>
        <mxCell id="ctAhxFMVK5xCa03oS9Rk-232" style="edgeStyle=none;shape=connector;rounded=0;orthogonalLoop=1;jettySize=auto;html=1;exitX=1;exitY=0.5;exitDx=0;exitDy=0;entryX=0;entryY=1;entryDx=0;entryDy=0;labelBackgroundColor=default;strokeColor=default;fontFamily=Helvetica;fontSize=16;fontColor=default;endArrow=none;endFill=0;" parent="1" source="ctAhxFMVK5xCa03oS9Rk-233" target="ctAhxFMVK5xCa03oS9Rk-223" edge="1">
          <mxGeometry relative="1" as="geometry" />
        </mxCell>
        <mxCell id="ctAhxFMVK5xCa03oS9Rk-233" value="Create_time" style="ellipse;whiteSpace=wrap;html=1;fontSize=16;" parent="1" vertex="1">
          <mxGeometry x="-482" y="1570" width="120" height="80" as="geometry" />
        </mxCell>
        <mxCell id="ctAhxFMVK5xCa03oS9Rk-237" style="edgeStyle=none;shape=connector;rounded=0;orthogonalLoop=1;jettySize=auto;html=1;exitX=0.5;exitY=0;exitDx=0;exitDy=0;entryX=1;entryY=1;entryDx=0;entryDy=0;labelBackgroundColor=default;strokeColor=default;fontFamily=Helvetica;fontSize=16;fontColor=default;endArrow=none;endFill=0;" parent="1" source="ctAhxFMVK5xCa03oS9Rk-234" target="ctAhxFMVK5xCa03oS9Rk-223" edge="1">
          <mxGeometry relative="1" as="geometry" />
        </mxCell>
        <mxCell id="ctAhxFMVK5xCa03oS9Rk-234" value="Up" style="ellipse;whiteSpace=wrap;html=1;fontSize=16;" parent="1" vertex="1">
          <mxGeometry x="-160" y="1640" width="120" height="80" as="geometry" />
        </mxCell>
        <mxCell id="ctAhxFMVK5xCa03oS9Rk-236" style="edgeStyle=none;shape=connector;rounded=0;orthogonalLoop=1;jettySize=auto;html=1;exitX=0.5;exitY=0;exitDx=0;exitDy=0;entryX=0.5;entryY=1;entryDx=0;entryDy=0;labelBackgroundColor=default;strokeColor=default;fontFamily=Helvetica;fontSize=16;fontColor=default;endArrow=none;endFill=0;" parent="1" source="ctAhxFMVK5xCa03oS9Rk-235" target="ctAhxFMVK5xCa03oS9Rk-223" edge="1">
          <mxGeometry relative="1" as="geometry" />
        </mxCell>
        <mxCell id="ctAhxFMVK5xCa03oS9Rk-235" value="Content" style="ellipse;whiteSpace=wrap;html=1;fontSize=16;" parent="1" vertex="1">
          <mxGeometry x="-332" y="1640" width="120" height="80" as="geometry" />
        </mxCell>
        <mxCell id="ctAhxFMVK5xCa03oS9Rk-256" style="edgeStyle=none;shape=connector;rounded=0;orthogonalLoop=1;jettySize=auto;html=1;exitX=1;exitY=0.5;exitDx=0;exitDy=0;entryX=0;entryY=0.5;entryDx=0;entryDy=0;labelBackgroundColor=default;strokeColor=default;fontFamily=Helvetica;fontSize=16;fontColor=default;endArrow=none;endFill=0;" parent="1" source="ctAhxFMVK5xCa03oS9Rk-240" target="ctAhxFMVK5xCa03oS9Rk-169" edge="1">
          <mxGeometry relative="1" as="geometry" />
        </mxCell>
        <mxCell id="ctAhxFMVK5xCa03oS9Rk-240" value="Comment" style="rhombus;whiteSpace=wrap;html=1;fontFamily=Helvetica;fontSize=16;fontColor=default;" parent="1" vertex="1">
          <mxGeometry x="475" y="1310" width="160" height="100" as="geometry" />
        </mxCell>
        <mxCell id="ctAhxFMVK5xCa03oS9Rk-241" style="edgeStyle=none;shape=connector;rounded=0;orthogonalLoop=1;jettySize=auto;html=1;exitX=1;exitY=1;exitDx=0;exitDy=0;entryX=0;entryY=0;entryDx=0;entryDy=0;labelBackgroundColor=default;strokeColor=default;fontFamily=Helvetica;fontSize=16;fontColor=default;endArrow=none;endFill=0;" parent="1" source="ctAhxFMVK5xCa03oS9Rk-242" target="ctAhxFMVK5xCa03oS9Rk-240" edge="1">
          <mxGeometry relative="1" as="geometry" />
        </mxCell>
        <mxCell id="ctAhxFMVK5xCa03oS9Rk-242" value="User_id" style="ellipse;whiteSpace=wrap;html=1;fontSize=16;" parent="1" vertex="1">
          <mxGeometry x="248" y="1105" width="120" height="80" as="geometry" />
        </mxCell>
        <mxCell id="ctAhxFMVK5xCa03oS9Rk-243" style="edgeStyle=none;shape=connector;rounded=0;orthogonalLoop=1;jettySize=auto;html=1;exitX=1;exitY=0.5;exitDx=0;exitDy=0;entryX=0;entryY=0.5;entryDx=0;entryDy=0;labelBackgroundColor=default;strokeColor=default;fontFamily=Helvetica;fontSize=16;fontColor=default;endArrow=none;endFill=0;" parent="1" source="ctAhxFMVK5xCa03oS9Rk-244" target="ctAhxFMVK5xCa03oS9Rk-240" edge="1">
          <mxGeometry relative="1" as="geometry" />
        </mxCell>
        <mxCell id="ctAhxFMVK5xCa03oS9Rk-244" value="Id" style="ellipse;whiteSpace=wrap;html=1;fontSize=16;" parent="1" vertex="1">
          <mxGeometry x="158" y="1245" width="120" height="80" as="geometry" />
        </mxCell>
        <mxCell id="ctAhxFMVK5xCa03oS9Rk-245" style="edgeStyle=none;shape=connector;rounded=0;orthogonalLoop=1;jettySize=auto;html=1;exitX=0.5;exitY=1;exitDx=0;exitDy=0;entryX=1;entryY=0;entryDx=0;entryDy=0;labelBackgroundColor=default;strokeColor=default;fontFamily=Helvetica;fontSize=16;fontColor=default;endArrow=none;endFill=0;" parent="1" source="ctAhxFMVK5xCa03oS9Rk-246" target="ctAhxFMVK5xCa03oS9Rk-240" edge="1">
          <mxGeometry relative="1" as="geometry" />
        </mxCell>
        <mxCell id="ctAhxFMVK5xCa03oS9Rk-246" value="Type" style="ellipse;whiteSpace=wrap;html=1;fontSize=16;" parent="1" vertex="1">
          <mxGeometry x="605" y="1005" width="120" height="80" as="geometry" />
        </mxCell>
        <mxCell id="glJbVPCEfy5f578Npy7e-21" style="edgeStyle=none;rounded=0;orthogonalLoop=1;jettySize=auto;html=1;exitX=0.5;exitY=1;exitDx=0;exitDy=0;entryX=0.5;entryY=0;entryDx=0;entryDy=0;endArrow=none;endFill=0;" parent="1" source="ctAhxFMVK5xCa03oS9Rk-248" target="ctAhxFMVK5xCa03oS9Rk-240" edge="1">
          <mxGeometry relative="1" as="geometry" />
        </mxCell>
        <mxCell id="ctAhxFMVK5xCa03oS9Rk-248" value="Song_list_id" style="ellipse;whiteSpace=wrap;html=1;fontSize=16;" parent="1" vertex="1">
          <mxGeometry x="470" y="1050" width="120" height="80" as="geometry" />
        </mxCell>
        <mxCell id="ctAhxFMVK5xCa03oS9Rk-249" style="edgeStyle=none;shape=connector;rounded=0;orthogonalLoop=1;jettySize=auto;html=1;exitX=1;exitY=0.5;exitDx=0;exitDy=0;entryX=0;entryY=1;entryDx=0;entryDy=0;labelBackgroundColor=default;strokeColor=default;fontFamily=Helvetica;fontSize=16;fontColor=default;endArrow=none;endFill=0;" parent="1" source="ctAhxFMVK5xCa03oS9Rk-250" target="ctAhxFMVK5xCa03oS9Rk-240" edge="1">
          <mxGeometry relative="1" as="geometry" />
        </mxCell>
        <mxCell id="ctAhxFMVK5xCa03oS9Rk-250" value="Create_time" style="ellipse;whiteSpace=wrap;html=1;fontSize=16;" parent="1" vertex="1">
          <mxGeometry x="207" y="1510" width="120" height="80" as="geometry" />
        </mxCell>
        <mxCell id="ctAhxFMVK5xCa03oS9Rk-251" style="edgeStyle=none;shape=connector;rounded=0;orthogonalLoop=1;jettySize=auto;html=1;exitX=0.5;exitY=0;exitDx=0;exitDy=0;entryX=1;entryY=1;entryDx=0;entryDy=0;labelBackgroundColor=default;strokeColor=default;fontFamily=Helvetica;fontSize=16;fontColor=default;endArrow=none;endFill=0;" parent="1" source="ctAhxFMVK5xCa03oS9Rk-252" target="ctAhxFMVK5xCa03oS9Rk-240" edge="1">
          <mxGeometry relative="1" as="geometry" />
        </mxCell>
        <mxCell id="ctAhxFMVK5xCa03oS9Rk-252" value="Up" style="ellipse;whiteSpace=wrap;html=1;fontSize=16;" parent="1" vertex="1">
          <mxGeometry x="557" y="1560" width="120" height="80" as="geometry" />
        </mxCell>
        <mxCell id="ctAhxFMVK5xCa03oS9Rk-253" style="edgeStyle=none;shape=connector;rounded=0;orthogonalLoop=1;jettySize=auto;html=1;exitX=0.5;exitY=0;exitDx=0;exitDy=0;entryX=0.5;entryY=1;entryDx=0;entryDy=0;labelBackgroundColor=default;strokeColor=default;fontFamily=Helvetica;fontSize=16;fontColor=default;endArrow=none;endFill=0;" parent="1" source="ctAhxFMVK5xCa03oS9Rk-254" target="ctAhxFMVK5xCa03oS9Rk-240" edge="1">
          <mxGeometry relative="1" as="geometry" />
        </mxCell>
        <mxCell id="ctAhxFMVK5xCa03oS9Rk-254" value="Content" style="ellipse;whiteSpace=wrap;html=1;fontSize=16;" parent="1" vertex="1">
          <mxGeometry x="420" y="1570" width="120" height="80" as="geometry" />
        </mxCell>
        <mxCell id="glJbVPCEfy5f578Npy7e-7" style="rounded=0;orthogonalLoop=1;jettySize=auto;html=1;exitX=1;exitY=0.5;exitDx=0;exitDy=0;entryX=0.25;entryY=1;entryDx=0;entryDy=0;endArrow=none;endFill=0;" parent="1" source="ctAhxFMVK5xCa03oS9Rk-257" target="ctAhxFMVK5xCa03oS9Rk-169" edge="1">
          <mxGeometry relative="1" as="geometry" />
        </mxCell>
        <mxCell id="ctAhxFMVK5xCa03oS9Rk-257" value="List_song" style="rhombus;whiteSpace=wrap;html=1;fontFamily=Helvetica;fontSize=16;fontColor=default;" parent="1" vertex="1">
          <mxGeometry x="37" y="1840" width="160" height="100" as="geometry" />
        </mxCell>
        <mxCell id="ctAhxFMVK5xCa03oS9Rk-274" style="edgeStyle=none;shape=connector;rounded=0;orthogonalLoop=1;jettySize=auto;html=1;exitX=1;exitY=0.5;exitDx=0;exitDy=0;entryX=0;entryY=1;entryDx=0;entryDy=0;labelBackgroundColor=default;strokeColor=default;fontFamily=Helvetica;fontSize=16;fontColor=default;endArrow=none;endFill=0;" parent="1" source="ctAhxFMVK5xCa03oS9Rk-261" target="ctAhxFMVK5xCa03oS9Rk-257" edge="1">
          <mxGeometry relative="1" as="geometry" />
        </mxCell>
        <mxCell id="ctAhxFMVK5xCa03oS9Rk-261" value="Id" style="ellipse;whiteSpace=wrap;html=1;fontSize=16;" parent="1" vertex="1">
          <mxGeometry x="-250" y="1930" width="120" height="80" as="geometry" />
        </mxCell>
        <mxCell id="ctAhxFMVK5xCa03oS9Rk-275" style="edgeStyle=none;shape=connector;rounded=0;orthogonalLoop=1;jettySize=auto;html=1;exitX=0.5;exitY=1;exitDx=0;exitDy=0;entryX=0.5;entryY=0;entryDx=0;entryDy=0;labelBackgroundColor=default;strokeColor=default;fontFamily=Helvetica;fontSize=16;fontColor=default;endArrow=none;endFill=0;" parent="1" source="ctAhxFMVK5xCa03oS9Rk-265" target="ctAhxFMVK5xCa03oS9Rk-257" edge="1">
          <mxGeometry relative="1" as="geometry" />
        </mxCell>
        <mxCell id="ctAhxFMVK5xCa03oS9Rk-265" value="Song_id" style="ellipse;whiteSpace=wrap;html=1;fontSize=16;" parent="1" vertex="1">
          <mxGeometry x="38" y="1632" width="120" height="80" as="geometry" />
        </mxCell>
        <mxCell id="ctAhxFMVK5xCa03oS9Rk-273" style="edgeStyle=none;shape=connector;rounded=0;orthogonalLoop=1;jettySize=auto;html=1;exitX=1;exitY=0;exitDx=0;exitDy=0;entryX=0.5;entryY=1;entryDx=0;entryDy=0;labelBackgroundColor=default;strokeColor=default;fontFamily=Helvetica;fontSize=16;fontColor=default;endArrow=none;endFill=0;" parent="1" source="ctAhxFMVK5xCa03oS9Rk-272" target="ctAhxFMVK5xCa03oS9Rk-257" edge="1">
          <mxGeometry relative="1" as="geometry" />
        </mxCell>
        <mxCell id="ctAhxFMVK5xCa03oS9Rk-272" value="Song_list_id" style="ellipse;whiteSpace=wrap;html=1;fontSize=16;" parent="1" vertex="1">
          <mxGeometry x="-40" y="2030" width="120" height="80" as="geometry" />
        </mxCell>
        <mxCell id="ctAhxFMVK5xCa03oS9Rk-292" style="edgeStyle=none;shape=connector;rounded=0;orthogonalLoop=1;jettySize=auto;html=1;exitX=1;exitY=0.5;exitDx=0;exitDy=0;entryX=0.5;entryY=0;entryDx=0;entryDy=0;labelBackgroundColor=default;strokeColor=default;fontFamily=Helvetica;fontSize=16;fontColor=default;endArrow=none;endFill=0;" parent="1" source="ctAhxFMVK5xCa03oS9Rk-279" target="ctAhxFMVK5xCa03oS9Rk-169" edge="1">
          <mxGeometry relative="1" as="geometry" />
        </mxCell>
        <mxCell id="ctAhxFMVK5xCa03oS9Rk-279" value="rank_list" style="rhombus;whiteSpace=wrap;html=1;fontFamily=Helvetica;fontSize=16;fontColor=default;" parent="1" vertex="1">
          <mxGeometry x="677" y="795" width="160" height="100" as="geometry" />
        </mxCell>
        <mxCell id="ctAhxFMVK5xCa03oS9Rk-280" style="edgeStyle=none;shape=connector;rounded=0;orthogonalLoop=1;jettySize=auto;html=1;exitX=1;exitY=1;exitDx=0;exitDy=0;entryX=0;entryY=0;entryDx=0;entryDy=0;labelBackgroundColor=default;strokeColor=default;fontFamily=Helvetica;fontSize=16;fontColor=default;endArrow=none;endFill=0;" parent="1" source="ctAhxFMVK5xCa03oS9Rk-281" target="ctAhxFMVK5xCa03oS9Rk-279" edge="1">
          <mxGeometry relative="1" as="geometry" />
        </mxCell>
        <mxCell id="ctAhxFMVK5xCa03oS9Rk-281" value="Consumer_id" style="ellipse;whiteSpace=wrap;html=1;fontSize=16;" parent="1" vertex="1">
          <mxGeometry x="527" y="635" width="120" height="80" as="geometry" />
        </mxCell>
        <mxCell id="ctAhxFMVK5xCa03oS9Rk-293" style="edgeStyle=none;shape=connector;rounded=0;orthogonalLoop=1;jettySize=auto;html=1;exitX=0.5;exitY=0;exitDx=0;exitDy=0;entryX=0.5;entryY=1;entryDx=0;entryDy=0;labelBackgroundColor=default;strokeColor=default;fontFamily=Helvetica;fontSize=16;fontColor=default;endArrow=none;endFill=0;" parent="1" source="ctAhxFMVK5xCa03oS9Rk-283" target="ctAhxFMVK5xCa03oS9Rk-279" edge="1">
          <mxGeometry relative="1" as="geometry" />
        </mxCell>
        <mxCell id="ctAhxFMVK5xCa03oS9Rk-283" value="Id" style="ellipse;whiteSpace=wrap;html=1;fontSize=16;" parent="1" vertex="1">
          <mxGeometry x="725" y="1085" width="120" height="80" as="geometry" />
        </mxCell>
        <mxCell id="ctAhxFMVK5xCa03oS9Rk-286" style="edgeStyle=none;shape=connector;rounded=0;orthogonalLoop=1;jettySize=auto;html=1;exitX=0.5;exitY=1;exitDx=0;exitDy=0;entryX=0.5;entryY=0;entryDx=0;entryDy=0;labelBackgroundColor=default;strokeColor=default;fontFamily=Helvetica;fontSize=16;fontColor=default;endArrow=none;endFill=0;" parent="1" source="ctAhxFMVK5xCa03oS9Rk-287" target="ctAhxFMVK5xCa03oS9Rk-279" edge="1">
          <mxGeometry relative="1" as="geometry" />
        </mxCell>
        <mxCell id="ctAhxFMVK5xCa03oS9Rk-287" value="Song_list_id" style="ellipse;whiteSpace=wrap;html=1;fontSize=16;" parent="1" vertex="1">
          <mxGeometry x="697" y="545" width="120" height="80" as="geometry" />
        </mxCell>
        <mxCell id="ctAhxFMVK5xCa03oS9Rk-290" style="edgeStyle=none;shape=connector;rounded=0;orthogonalLoop=1;jettySize=auto;html=1;exitX=1;exitY=0;exitDx=0;exitDy=0;entryX=0;entryY=1;entryDx=0;entryDy=0;labelBackgroundColor=default;strokeColor=default;fontFamily=Helvetica;fontSize=16;fontColor=default;endArrow=none;endFill=0;" parent="1" source="ctAhxFMVK5xCa03oS9Rk-289" target="ctAhxFMVK5xCa03oS9Rk-279" edge="1">
          <mxGeometry relative="1" as="geometry" />
        </mxCell>
        <mxCell id="ctAhxFMVK5xCa03oS9Rk-289" value="Score" style="ellipse;whiteSpace=wrap;html=1;fontSize=16;" parent="1" vertex="1">
          <mxGeometry x="495" y="925" width="120" height="80" as="geometry" />
        </mxCell>
        <mxCell id="ctAhxFMVK5xCa03oS9Rk-301" style="edgeStyle=none;shape=connector;rounded=0;orthogonalLoop=1;jettySize=auto;html=1;exitX=0.5;exitY=1;exitDx=0;exitDy=0;entryX=0.5;entryY=0;entryDx=0;entryDy=0;labelBackgroundColor=default;strokeColor=default;fontFamily=Helvetica;fontSize=16;fontColor=default;endArrow=none;endFill=0;" parent="1" source="ctAhxFMVK5xCa03oS9Rk-299" target="ctAhxFMVK5xCa03oS9Rk-53" edge="1">
          <mxGeometry relative="1" as="geometry" />
        </mxCell>
        <mxCell id="ctAhxFMVK5xCa03oS9Rk-299" value="Create" style="rhombus;whiteSpace=wrap;html=1;fontFamily=Helvetica;fontSize=16;fontColor=default;" parent="1" vertex="1">
          <mxGeometry x="-1090" y="1790" width="160" height="100" as="geometry" />
        </mxCell>
        <mxCell id="ctAhxFMVK5xCa03oS9Rk-302" value="User_support" style="rounded=0;whiteSpace=wrap;html=1;fontSize=16;" parent="1" vertex="1">
          <mxGeometry x="-1145" y="110" width="120" height="60" as="geometry" />
        </mxCell>
        <mxCell id="ctAhxFMVK5xCa03oS9Rk-303" style="rounded=0;orthogonalLoop=1;jettySize=auto;html=1;exitX=1;exitY=0;exitDx=0;exitDy=0;entryX=0.25;entryY=1;entryDx=0;entryDy=0;fontSize=16;endArrow=none;endFill=0;" parent="1" source="ctAhxFMVK5xCa03oS9Rk-304" target="ctAhxFMVK5xCa03oS9Rk-302" edge="1">
          <mxGeometry relative="1" as="geometry" />
        </mxCell>
        <mxCell id="ctAhxFMVK5xCa03oS9Rk-304" value="Id" style="ellipse;whiteSpace=wrap;html=1;fontSize=16;" parent="1" vertex="1">
          <mxGeometry x="-1265" y="210" width="120" height="80" as="geometry" />
        </mxCell>
        <mxCell id="ctAhxFMVK5xCa03oS9Rk-305" style="rounded=0;orthogonalLoop=1;jettySize=auto;html=1;exitX=0;exitY=0;exitDx=0;exitDy=0;entryX=0.75;entryY=1;entryDx=0;entryDy=0;fontSize=16;endArrow=none;endFill=0;" parent="1" source="ctAhxFMVK5xCa03oS9Rk-306" target="ctAhxFMVK5xCa03oS9Rk-302" edge="1">
          <mxGeometry relative="1" as="geometry" />
        </mxCell>
        <mxCell id="ctAhxFMVK5xCa03oS9Rk-306" value="Comm_id" style="ellipse;whiteSpace=wrap;html=1;fontSize=16;" parent="1" vertex="1">
          <mxGeometry x="-1025" y="210" width="120" height="80" as="geometry" />
        </mxCell>
        <mxCell id="ctAhxFMVK5xCa03oS9Rk-307" style="rounded=0;orthogonalLoop=1;jettySize=auto;html=1;exitX=0.5;exitY=1;exitDx=0;exitDy=0;fontSize=16;endArrow=none;endFill=0;" parent="1" source="ctAhxFMVK5xCa03oS9Rk-308" target="ctAhxFMVK5xCa03oS9Rk-302" edge="1">
          <mxGeometry relative="1" as="geometry" />
        </mxCell>
        <mxCell id="ctAhxFMVK5xCa03oS9Rk-308" value="User_id" style="ellipse;whiteSpace=wrap;html=1;fontSize=16;" parent="1" vertex="1">
          <mxGeometry x="-1145" y="-20" width="120" height="80" as="geometry" />
        </mxCell>
        <mxCell id="glJbVPCEfy5f578Npy7e-1" value="N" style="text;html=1;align=center;verticalAlign=middle;resizable=0;points=[];autosize=1;strokeColor=none;fillColor=none;" parent="1" vertex="1">
          <mxGeometry x="1080" y="380" width="30" height="30" as="geometry" />
        </mxCell>
        <mxCell id="glJbVPCEfy5f578Npy7e-2" value="M" style="text;html=1;align=center;verticalAlign=middle;resizable=0;points=[];autosize=1;strokeColor=none;fillColor=none;" parent="1" vertex="1">
          <mxGeometry x="1190" y="470" width="30" height="30" as="geometry" />
        </mxCell>
        <mxCell id="glJbVPCEfy5f578Npy7e-3" value="N" style="text;html=1;align=center;verticalAlign=middle;resizable=0;points=[];autosize=1;strokeColor=none;fillColor=none;" parent="1" vertex="1">
          <mxGeometry x="497" y="1272" width="30" height="30" as="geometry" />
        </mxCell>
        <mxCell id="glJbVPCEfy5f578Npy7e-4" value="M" style="text;html=1;align=center;verticalAlign=middle;resizable=0;points=[];autosize=1;strokeColor=none;fillColor=none;" parent="1" vertex="1">
          <mxGeometry x="647" y="1340" width="30" height="30" as="geometry" />
        </mxCell>
        <mxCell id="glJbVPCEfy5f578Npy7e-5" value="M" style="text;html=1;align=center;verticalAlign=middle;resizable=0;points=[];autosize=1;strokeColor=none;fillColor=none;" parent="1" vertex="1">
          <mxGeometry x="-155" y="1355" width="30" height="30" as="geometry" />
        </mxCell>
        <mxCell id="glJbVPCEfy5f578Npy7e-6" value="N" style="text;html=1;align=center;verticalAlign=middle;resizable=0;points=[];autosize=1;strokeColor=none;fillColor=none;" parent="1" vertex="1">
          <mxGeometry x="-305" y="1447" width="30" height="30" as="geometry" />
        </mxCell>
        <mxCell id="glJbVPCEfy5f578Npy7e-8" value="M" style="text;html=1;align=center;verticalAlign=middle;resizable=0;points=[];autosize=1;strokeColor=none;fillColor=none;" parent="1" vertex="1">
          <mxGeometry x="7" y="1845" width="30" height="30" as="geometry" />
        </mxCell>
        <mxCell id="glJbVPCEfy5f578Npy7e-9" value="N" style="text;html=1;align=center;verticalAlign=middle;resizable=0;points=[];autosize=1;strokeColor=none;fillColor=none;" parent="1" vertex="1">
          <mxGeometry x="195" y="1845" width="30" height="30" as="geometry" />
        </mxCell>
        <mxCell id="glJbVPCEfy5f578Npy7e-10" value="M" style="text;html=1;align=center;verticalAlign=middle;resizable=0;points=[];autosize=1;strokeColor=none;fillColor=none;" parent="1" vertex="1">
          <mxGeometry x="655" y="805" width="30" height="30" as="geometry" />
        </mxCell>
        <mxCell id="glJbVPCEfy5f578Npy7e-11" value="N" style="text;html=1;align=center;verticalAlign=middle;resizable=0;points=[];autosize=1;strokeColor=none;fillColor=none;" parent="1" vertex="1">
          <mxGeometry x="855" y="865" width="30" height="30" as="geometry" />
        </mxCell>
        <mxCell id="glJbVPCEfy5f578Npy7e-12" value="M" style="text;html=1;align=center;verticalAlign=middle;resizable=0;points=[];autosize=1;strokeColor=none;fillColor=none;" parent="1" vertex="1">
          <mxGeometry x="-735" y="875" width="30" height="30" as="geometry" />
        </mxCell>
        <mxCell id="glJbVPCEfy5f578Npy7e-13" value="N" style="text;html=1;align=center;verticalAlign=middle;resizable=0;points=[];autosize=1;strokeColor=none;fillColor=none;" parent="1" vertex="1">
          <mxGeometry x="-645" y="775" width="30" height="30" as="geometry" />
        </mxCell>
        <mxCell id="glJbVPCEfy5f578Npy7e-14" value="1" style="text;html=1;align=center;verticalAlign=middle;resizable=0;points=[];autosize=1;strokeColor=none;fillColor=none;" parent="1" vertex="1">
          <mxGeometry x="-1005" y="1895" width="30" height="30" as="geometry" />
        </mxCell>
        <mxCell id="glJbVPCEfy5f578Npy7e-15" value="N" style="text;html=1;align=center;verticalAlign=middle;resizable=0;points=[];autosize=1;strokeColor=none;fillColor=none;" parent="1" vertex="1">
          <mxGeometry x="-1005" y="1755" width="30" height="30" as="geometry" />
        </mxCell>
        <mxCell id="MxxMs0gsNMaucJudg2Yt-58" style="edgeStyle=none;rounded=0;orthogonalLoop=1;jettySize=auto;html=1;exitX=1;exitY=0.5;exitDx=0;exitDy=0;entryX=0;entryY=0.5;entryDx=0;entryDy=0;endArrow=none;endFill=0;" edge="1" parent="1" source="MxxMs0gsNMaucJudg2Yt-3" target="MxxMs0gsNMaucJudg2Yt-8">
          <mxGeometry relative="1" as="geometry" />
        </mxCell>
        <mxCell id="MxxMs0gsNMaucJudg2Yt-3" value="Id" style="ellipse;whiteSpace=wrap;html=1;fontSize=16;" vertex="1" parent="1">
          <mxGeometry x="-855" y="10" width="120" height="80" as="geometry" />
        </mxCell>
        <mxCell id="MxxMs0gsNMaucJudg2Yt-4" style="rounded=0;orthogonalLoop=1;jettySize=auto;html=1;exitX=0;exitY=0;exitDx=0;exitDy=0;entryX=0.75;entryY=1;entryDx=0;entryDy=0;fontSize=16;endArrow=none;endFill=0;startArrow=none;" edge="1" parent="1" source="MxxMs0gsNMaucJudg2Yt-8">
          <mxGeometry relative="1" as="geometry">
            <mxPoint x="-512" y="40" as="targetPoint" />
          </mxGeometry>
        </mxCell>
        <mxCell id="MxxMs0gsNMaucJudg2Yt-20" style="edgeStyle=none;rounded=0;orthogonalLoop=1;jettySize=auto;html=1;exitX=0.5;exitY=0;exitDx=0;exitDy=0;endArrow=none;endFill=0;" edge="1" parent="1" source="MxxMs0gsNMaucJudg2Yt-5" target="MxxMs0gsNMaucJudg2Yt-8">
          <mxGeometry relative="1" as="geometry" />
        </mxCell>
        <mxCell id="MxxMs0gsNMaucJudg2Yt-5" value="message" style="ellipse;whiteSpace=wrap;html=1;fontSize=16;" vertex="1" parent="1">
          <mxGeometry x="-740" y="240" width="120" height="80" as="geometry" />
        </mxCell>
        <mxCell id="MxxMs0gsNMaucJudg2Yt-28" style="edgeStyle=none;rounded=0;orthogonalLoop=1;jettySize=auto;html=1;exitX=0.5;exitY=1;exitDx=0;exitDy=0;entryX=0;entryY=0;entryDx=0;entryDy=0;endArrow=none;endFill=0;" edge="1" parent="1" source="MxxMs0gsNMaucJudg2Yt-7" target="MxxMs0gsNMaucJudg2Yt-8">
          <mxGeometry relative="1" as="geometry" />
        </mxCell>
        <mxCell id="MxxMs0gsNMaucJudg2Yt-7" value="User_id" style="ellipse;whiteSpace=wrap;html=1;fontSize=16;" vertex="1" parent="1">
          <mxGeometry x="-685" y="-170" width="120" height="80" as="geometry" />
        </mxCell>
        <mxCell id="MxxMs0gsNMaucJudg2Yt-8" value="Message_board" style="rhombus;whiteSpace=wrap;html=1;fontFamily=Helvetica;fontSize=16;fontColor=default;" vertex="1" parent="1">
          <mxGeometry x="-629" y="-10" width="160" height="100" as="geometry" />
        </mxCell>
        <mxCell id="MxxMs0gsNMaucJudg2Yt-30" style="edgeStyle=none;rounded=0;orthogonalLoop=1;jettySize=auto;html=1;exitX=0;exitY=0;exitDx=0;exitDy=0;endArrow=none;endFill=0;" edge="1" parent="1" source="MxxMs0gsNMaucJudg2Yt-10" target="MxxMs0gsNMaucJudg2Yt-8">
          <mxGeometry relative="1" as="geometry" />
        </mxCell>
        <mxCell id="MxxMs0gsNMaucJudg2Yt-10" value="create_time" style="ellipse;whiteSpace=wrap;html=1;fontSize=16;" vertex="1" parent="1">
          <mxGeometry x="-370" y="170" width="120" height="80" as="geometry" />
        </mxCell>
        <mxCell id="MxxMs0gsNMaucJudg2Yt-19" style="edgeStyle=none;rounded=0;orthogonalLoop=1;jettySize=auto;html=1;exitX=1;exitY=0;exitDx=0;exitDy=0;endArrow=none;endFill=0;" edge="1" parent="1" source="MxxMs0gsNMaucJudg2Yt-11" target="MxxMs0gsNMaucJudg2Yt-8">
          <mxGeometry relative="1" as="geometry" />
        </mxCell>
        <mxCell id="MxxMs0gsNMaucJudg2Yt-11" value="reply_name" style="ellipse;whiteSpace=wrap;html=1;fontSize=16;" vertex="1" parent="1">
          <mxGeometry x="-840" y="130" width="120" height="80" as="geometry" />
        </mxCell>
        <mxCell id="MxxMs0gsNMaucJudg2Yt-21" style="edgeStyle=none;rounded=0;orthogonalLoop=1;jettySize=auto;html=1;exitX=0.5;exitY=0;exitDx=0;exitDy=0;endArrow=none;endFill=0;" edge="1" parent="1" source="MxxMs0gsNMaucJudg2Yt-12" target="MxxMs0gsNMaucJudg2Yt-8">
          <mxGeometry relative="1" as="geometry" />
        </mxCell>
        <mxCell id="MxxMs0gsNMaucJudg2Yt-12" value="replied" style="ellipse;whiteSpace=wrap;html=1;fontSize=16;" vertex="1" parent="1">
          <mxGeometry x="-620" y="290" width="120" height="80" as="geometry" />
        </mxCell>
        <mxCell id="MxxMs0gsNMaucJudg2Yt-27" style="edgeStyle=none;rounded=0;orthogonalLoop=1;jettySize=auto;html=1;exitX=1;exitY=1;exitDx=0;exitDy=0;entryX=0.056;entryY=0.4;entryDx=0;entryDy=0;entryPerimeter=0;endArrow=none;endFill=0;" edge="1" parent="1" source="MxxMs0gsNMaucJudg2Yt-13" target="MxxMs0gsNMaucJudg2Yt-8">
          <mxGeometry relative="1" as="geometry" />
        </mxCell>
        <mxCell id="MxxMs0gsNMaucJudg2Yt-13" value="reply_content" style="ellipse;whiteSpace=wrap;html=1;fontSize=16;" vertex="1" parent="1">
          <mxGeometry x="-850" y="-150" width="120" height="80" as="geometry" />
        </mxCell>
        <mxCell id="MxxMs0gsNMaucJudg2Yt-24" style="edgeStyle=none;rounded=0;orthogonalLoop=1;jettySize=auto;html=1;exitX=0;exitY=0.5;exitDx=0;exitDy=0;endArrow=none;endFill=0;" edge="1" parent="1" source="MxxMs0gsNMaucJudg2Yt-14" target="MxxMs0gsNMaucJudg2Yt-8">
          <mxGeometry relative="1" as="geometry" />
        </mxCell>
        <mxCell id="MxxMs0gsNMaucJudg2Yt-14" value="up" style="ellipse;whiteSpace=wrap;html=1;fontSize=16;" vertex="1" parent="1">
          <mxGeometry x="-332" y="-20" width="120" height="80" as="geometry" />
        </mxCell>
        <mxCell id="MxxMs0gsNMaucJudg2Yt-25" style="edgeStyle=none;rounded=0;orthogonalLoop=1;jettySize=auto;html=1;exitX=0;exitY=0.5;exitDx=0;exitDy=0;entryX=1;entryY=0;entryDx=0;entryDy=0;endArrow=none;endFill=0;" edge="1" parent="1" source="MxxMs0gsNMaucJudg2Yt-15" target="MxxMs0gsNMaucJudg2Yt-8">
          <mxGeometry relative="1" as="geometry" />
        </mxCell>
        <mxCell id="MxxMs0gsNMaucJudg2Yt-15" value="enabled" style="ellipse;whiteSpace=wrap;html=1;fontSize=16;" vertex="1" parent="1">
          <mxGeometry x="-390" y="-180" width="120" height="80" as="geometry" />
        </mxCell>
        <mxCell id="MxxMs0gsNMaucJudg2Yt-23" style="edgeStyle=none;rounded=0;orthogonalLoop=1;jettySize=auto;html=1;exitX=0;exitY=0.5;exitDx=0;exitDy=0;entryX=1;entryY=1;entryDx=0;entryDy=0;endArrow=none;endFill=0;" edge="1" parent="1" source="MxxMs0gsNMaucJudg2Yt-16" target="MxxMs0gsNMaucJudg2Yt-8">
          <mxGeometry relative="1" as="geometry" />
        </mxCell>
        <mxCell id="MxxMs0gsNMaucJudg2Yt-16" value="update_time" style="ellipse;whiteSpace=wrap;html=1;fontSize=16;" vertex="1" parent="1">
          <mxGeometry x="-250" y="70" width="120" height="80" as="geometry" />
        </mxCell>
        <mxCell id="MxxMs0gsNMaucJudg2Yt-57" style="edgeStyle=none;rounded=0;orthogonalLoop=1;jettySize=auto;html=1;exitX=0;exitY=0.5;exitDx=0;exitDy=0;entryX=1;entryY=0;entryDx=0;entryDy=0;endArrow=none;endFill=0;" edge="1" parent="1" source="MxxMs0gsNMaucJudg2Yt-36" target="MxxMs0gsNMaucJudg2Yt-42">
          <mxGeometry relative="1" as="geometry" />
        </mxCell>
        <mxCell id="MxxMs0gsNMaucJudg2Yt-36" value="Id" style="ellipse;whiteSpace=wrap;html=1;fontSize=16;" vertex="1" parent="1">
          <mxGeometry x="328" y="-250" width="120" height="80" as="geometry" />
        </mxCell>
        <mxCell id="MxxMs0gsNMaucJudg2Yt-37" style="rounded=0;orthogonalLoop=1;jettySize=auto;html=1;exitX=0;exitY=0;exitDx=0;exitDy=0;entryX=0.75;entryY=1;entryDx=0;entryDy=0;fontSize=16;endArrow=none;endFill=0;startArrow=none;" edge="1" parent="1" source="MxxMs0gsNMaucJudg2Yt-42">
          <mxGeometry relative="1" as="geometry">
            <mxPoint x="158" y="-110" as="targetPoint" />
          </mxGeometry>
        </mxCell>
        <mxCell id="MxxMs0gsNMaucJudg2Yt-38" style="edgeStyle=none;rounded=0;orthogonalLoop=1;jettySize=auto;html=1;exitX=0.5;exitY=0;exitDx=0;exitDy=0;endArrow=none;endFill=0;" edge="1" parent="1" source="MxxMs0gsNMaucJudg2Yt-39" target="MxxMs0gsNMaucJudg2Yt-42">
          <mxGeometry relative="1" as="geometry" />
        </mxCell>
        <mxCell id="MxxMs0gsNMaucJudg2Yt-39" value="message" style="ellipse;whiteSpace=wrap;html=1;fontSize=16;" vertex="1" parent="1">
          <mxGeometry x="-70" y="90" width="120" height="80" as="geometry" />
        </mxCell>
        <mxCell id="MxxMs0gsNMaucJudg2Yt-40" style="edgeStyle=none;rounded=0;orthogonalLoop=1;jettySize=auto;html=1;exitX=0.5;exitY=1;exitDx=0;exitDy=0;entryX=0;entryY=0;entryDx=0;entryDy=0;endArrow=none;endFill=0;" edge="1" parent="1" source="MxxMs0gsNMaucJudg2Yt-41" target="MxxMs0gsNMaucJudg2Yt-42">
          <mxGeometry relative="1" as="geometry" />
        </mxCell>
        <mxCell id="MxxMs0gsNMaucJudg2Yt-41" value="User_id" style="ellipse;whiteSpace=wrap;html=1;fontSize=16;" vertex="1" parent="1">
          <mxGeometry x="-15" y="-320" width="120" height="80" as="geometry" />
        </mxCell>
        <mxCell id="MxxMs0gsNMaucJudg2Yt-60" style="edgeStyle=none;rounded=0;orthogonalLoop=1;jettySize=auto;html=1;exitX=0.5;exitY=1;exitDx=0;exitDy=0;entryX=1;entryY=0;entryDx=0;entryDy=0;endArrow=none;endFill=0;" edge="1" parent="1" source="MxxMs0gsNMaucJudg2Yt-42" target="ctAhxFMVK5xCa03oS9Rk-17">
          <mxGeometry relative="1" as="geometry" />
        </mxCell>
        <mxCell id="MxxMs0gsNMaucJudg2Yt-42" value="Message_board" style="rhombus;whiteSpace=wrap;html=1;fontFamily=Helvetica;fontSize=16;fontColor=default;" vertex="1" parent="1">
          <mxGeometry x="41" y="-160" width="160" height="100" as="geometry" />
        </mxCell>
        <mxCell id="MxxMs0gsNMaucJudg2Yt-43" style="edgeStyle=none;rounded=0;orthogonalLoop=1;jettySize=auto;html=1;exitX=0;exitY=0;exitDx=0;exitDy=0;endArrow=none;endFill=0;" edge="1" parent="1" source="MxxMs0gsNMaucJudg2Yt-44" target="MxxMs0gsNMaucJudg2Yt-42">
          <mxGeometry relative="1" as="geometry" />
        </mxCell>
        <mxCell id="MxxMs0gsNMaucJudg2Yt-44" value="create_time" style="ellipse;whiteSpace=wrap;html=1;fontSize=16;" vertex="1" parent="1">
          <mxGeometry x="300" y="20" width="120" height="80" as="geometry" />
        </mxCell>
        <mxCell id="MxxMs0gsNMaucJudg2Yt-61" value="N" style="text;html=1;align=center;verticalAlign=middle;resizable=0;points=[];autosize=1;strokeColor=none;fillColor=none;" vertex="1" parent="1">
          <mxGeometry x="-542" y="80" width="30" height="30" as="geometry" />
        </mxCell>
        <mxCell id="MxxMs0gsNMaucJudg2Yt-62" value="N" style="text;html=1;align=center;verticalAlign=middle;resizable=0;points=[];autosize=1;strokeColor=none;fillColor=none;" vertex="1" parent="1">
          <mxGeometry x="30" y="-150" width="30" height="30" as="geometry" />
        </mxCell>
        <mxCell id="MxxMs0gsNMaucJudg2Yt-63" value="M" style="text;html=1;align=center;verticalAlign=middle;resizable=0;points=[];autosize=1;strokeColor=none;fillColor=none;" vertex="1" parent="1">
          <mxGeometry x="128" y="-50" width="30" height="30" as="geometry" />
        </mxCell>
        <mxCell id="MxxMs0gsNMaucJudg2Yt-64" value="M" style="text;html=1;align=center;verticalAlign=middle;resizable=0;points=[];autosize=1;strokeColor=none;fillColor=none;" vertex="1" parent="1">
          <mxGeometry x="-564" y="-60" width="30" height="30" as="geometry" />
        </mxCell>
      </root>
    </mxGraphModel>
  </diagram>
</mxfile>
